M48
; DRILL file {KiCad 9.0.4} date 2025-09-20T17:35:38+0200
; FORMAT={-:-/ absolute / metric / decimal}
; #@! TF.CreationDate,2025-09-20T17:35:38+02:00
; #@! TF.GenerationSoftware,Kicad,Pcbnew,9.0.4
; #@! TF.FileFunction,Plated,1,2,PTH
FMAT,2
METRIC
; #@! TA.AperFunction,Plated,PTH,ViaDrill
T1C0.400
; #@! TA.AperFunction,Plated,PTH,ComponentDrill
T2C0.750
; #@! TA.AperFunction,Plated,PTH,ComponentDrill
T3C1.000
; #@! TA.AperFunction,Plated,PTH,ComponentDrill
T4C3.200
%
G90
G05
T1
X32.0Y10.95
X32.0Y3.33
X32.9Y10.95
X32.9Y3.33
X33.0Y17.2
X34.55Y16.03
X61.0Y51.0
X61.9Y51.0
X68.75Y39.33
X68.75Y26.83
X68.8Y43.97
X69.7Y43.97
T2
X73.5Y43.0
X73.5Y41.0
T3
X8.42Y40.68
X8.42Y38.39
X8.42Y36.1
X8.42Y33.81
X8.42Y31.52
X10.96Y39.535
X10.96Y37.245
X10.96Y34.955
X10.96Y32.665
X10.96Y30.375
X13.5Y40.68
X13.5Y38.39
X13.5Y36.1
X13.5Y33.81
X13.5Y31.52
X38.61Y54.13
X38.61Y51.59
X38.61Y49.05
X38.61Y46.51
X38.61Y43.97
X38.61Y41.43
X38.61Y38.89
X38.61Y36.35
X38.61Y33.81
X38.61Y31.27
X38.61Y28.73
X38.61Y26.19
X38.61Y23.65
X38.61Y21.11
X38.61Y18.57
X38.61Y16.03
X38.61Y13.49
X38.61Y10.95
X38.61Y8.41
X38.61Y5.87
X44.96Y6.1
X47.5Y6.1
X50.04Y6.1
X56.39Y54.13
X56.39Y51.59
X56.39Y49.05
X56.39Y46.51
X56.39Y43.97
X56.39Y41.43
X56.39Y38.89
X56.39Y36.35
X56.39Y33.81
X56.39Y31.27
X56.39Y28.73
X56.39Y26.19
X56.39Y23.65
X56.39Y21.11
X56.39Y18.57
X56.39Y16.03
X56.39Y13.49
X56.39Y10.95
X56.39Y8.41
X56.39Y5.87
X64.0Y8.5
X64.0Y5.96
X64.0Y3.42
T4
X10.96Y48.335
X10.96Y23.335
T3
X1.7Y10.1G85X1.7Y10.9
G05
X4.9Y5.925G85X5.7Y5.925
G05
X7.9Y13.075G85X8.7Y13.075
G05
X9.2Y15.75G85X10.0Y15.75
G05
X12.8Y6.85G85X12.8Y6.05
G05
M30
