%TF.GenerationSoftware,KiCad,Pcbnew,9.0.4*%
%TF.CreationDate,2025-09-20T17:35:25+02:00*%
%TF.ProjectId,demoboard,64656d6f-626f-4617-9264-2e6b69636164,-*%
%TF.SameCoordinates,PX6422c40PY7cee6c0*%
%TF.FileFunction,Copper,L2,Bot*%
%TF.FilePolarity,Positive*%
%FSLAX46Y46*%
G04 Gerber Fmt 4.6, Leading zero omitted, Abs format (unit mm)*
G04 Created by KiCad (PCBNEW 9.0.4) date 2025-09-20 17:35:25*
%MOMM*%
%LPD*%
G01*
G04 APERTURE LIST*
G04 Aperture macros list*
%AMRoundRect*
0 Rectangle with rounded corners*
0 $1 Rounding radius*
0 $2 $3 $4 $5 $6 $7 $8 $9 X,Y pos of 4 corners*
0 Add a 4 corners polygon primitive as box body*
4,1,4,$2,$3,$4,$5,$6,$7,$8,$9,$2,$3,0*
0 Add four circle primitives for the rounded corners*
1,1,$1+$1,$2,$3*
1,1,$1+$1,$4,$5*
1,1,$1+$1,$6,$7*
1,1,$1+$1,$8,$9*
0 Add four rect primitives between the rounded corners*
20,1,$1+$1,$2,$3,$4,$5,0*
20,1,$1+$1,$4,$5,$6,$7,0*
20,1,$1+$1,$6,$7,$8,$9,0*
20,1,$1+$1,$8,$9,$2,$3,0*%
%AMHorizOval*
0 Thick line with rounded ends*
0 $1 width*
0 $2 $3 position (X,Y) of the first rounded end (center of the circle)*
0 $4 $5 position (X,Y) of the second rounded end (center of the circle)*
0 Add line between two ends*
20,1,$1,$2,$3,$4,$5,0*
0 Add two circle primitives to create the rounded ends*
1,1,$1,$2,$3*
1,1,$1,$4,$5*%
G04 Aperture macros list end*
%TA.AperFunction,ComponentPad*%
%ADD10O,2.800000X2.400000*%
%TD*%
%TA.AperFunction,ComponentPad*%
%ADD11O,2.800000X2.200000*%
%TD*%
%TA.AperFunction,ComponentPad*%
%ADD12O,2.400000X2.800000*%
%TD*%
%TA.AperFunction,ComponentPad*%
%ADD13R,1.700000X1.700000*%
%TD*%
%TA.AperFunction,ComponentPad*%
%ADD14HorizOval,1.700000X0.000000X0.000000X0.000000X0.000000X0*%
%TD*%
%TA.AperFunction,ComponentPad*%
%ADD15O,1.700000X1.700000*%
%TD*%
%TA.AperFunction,ComponentPad*%
%ADD16RoundRect,0.250000X-0.625000X0.350000X-0.625000X-0.350000X0.625000X-0.350000X0.625000X0.350000X0*%
%TD*%
%TA.AperFunction,ComponentPad*%
%ADD17O,1.750000X1.200000*%
%TD*%
%TA.AperFunction,ComponentPad*%
%ADD18C,4.000000*%
%TD*%
%TA.AperFunction,ComponentPad*%
%ADD19R,1.600000X1.600000*%
%TD*%
%TA.AperFunction,ComponentPad*%
%ADD20C,1.600000*%
%TD*%
%TA.AperFunction,ViaPad*%
%ADD21C,0.800000*%
%TD*%
%TA.AperFunction,Conductor*%
%ADD22C,0.250000*%
%TD*%
G04 APERTURE END LIST*
D10*
%TO.P,J4,1*%
%TO.N,Net-(C5-Pad2)*%
X5300000Y5925000D03*
D11*
%TO.P,J4,2*%
%TO.N,Net-(C4-Pad2)*%
X9600000Y15750000D03*
D12*
%TO.P,J4,3*%
%TO.N,GND*%
X1700000Y10500000D03*
%TO.P,J4,4*%
%TO.N,unconnected-(J4-Pad4)*%
X12800000Y6450000D03*
D11*
%TO.P,J4,5*%
%TO.N,unconnected-(J4-Pad5)*%
X8300000Y13075000D03*
%TD*%
D13*
%TO.P,J2,1,Pin_1*%
%TO.N,Net-(J2-Pin_1)*%
X64000000Y8500000D03*
D14*
%TO.P,J2,2,Pin_2*%
%TO.N,GND*%
X64000000Y5960000D03*
D15*
%TO.P,J2,3,Pin_3*%
%TO.N,Net-(J2-Pin_3)*%
X64000000Y3420000D03*
%TD*%
D16*
%TO.P,J3,1,Pin_1*%
%TO.N,Net-(D2-A)*%
X73500000Y43000000D03*
D17*
%TO.P,J3,2,Pin_2*%
%TO.N,GND*%
X73500000Y41000000D03*
%TD*%
D18*
%TO.P,J1,0*%
%TO.N,unconnected-(J1-Pad0)*%
X10960000Y48335000D03*
%TO.N,unconnected-(J1-Pad0)_1*%
X10960000Y23335000D03*
D19*
%TO.P,J1,1*%
%TO.N,Net-(J1-Pad1)*%
X13500000Y31520000D03*
D20*
%TO.P,J1,2*%
%TO.N,Net-(J1-Pad2)*%
X13500000Y33810000D03*
%TO.P,J1,3*%
%TO.N,Net-(J1-Pad3)*%
X13500000Y36100000D03*
%TO.P,J1,4*%
%TO.N,unconnected-(J1-Pad4)*%
X13500000Y38390000D03*
%TO.P,J1,5*%
%TO.N,GND*%
X13500000Y40680000D03*
%TO.P,J1,6*%
X10960000Y30375000D03*
%TO.P,J1,7*%
X10960000Y32665000D03*
%TO.P,J1,8*%
X10960000Y34955000D03*
%TO.P,J1,9*%
%TO.N,unconnected-(J1-Pad9)*%
X10960000Y37245000D03*
%TO.P,J1,10*%
%TO.N,GND*%
X10960000Y39535000D03*
%TO.P,J1,11*%
%TO.N,unconnected-(J1-Pad11)*%
X8420000Y31520000D03*
%TO.P,J1,12*%
%TO.N,unconnected-(J1-Pad12)*%
X8420000Y33810000D03*
%TO.P,J1,13*%
%TO.N,Net-(U1-GPIO13)*%
X8420000Y36100000D03*
%TO.P,J1,14*%
%TO.N,Net-(U1-GPIO12)*%
X8420000Y38390000D03*
%TO.P,J1,15*%
%TO.N,unconnected-(J1-Pad15)*%
X8420000Y40680000D03*
%TD*%
%TO.P,U1,1,GPIO0*%
%TO.N,Net-(U1-GPIO0)*%
X38610000Y54130000D03*
%TO.P,U1,2,GPIO1*%
%TO.N,Net-(U1-GPIO1)*%
X38610000Y51590000D03*
%TO.P,U1,3,GND*%
%TO.N,GND*%
X38610000Y49050000D03*
%TO.P,U1,4,GPIO2*%
%TO.N,Net-(U1-GPIO2)*%
X38610000Y46510000D03*
%TO.P,U1,5,GPIO3*%
%TO.N,Net-(U1-GPIO3)*%
X38610000Y43970000D03*
%TO.P,U1,6,GPIO4*%
%TO.N,Net-(U1-GPIO4)*%
X38610000Y41430000D03*
%TO.P,U1,7,GPIO5*%
%TO.N,Net-(U1-GPIO5)*%
X38610000Y38890000D03*
%TO.P,U1,8,GND*%
%TO.N,GND*%
X38610000Y36350000D03*
%TO.P,U1,9,GPIO6*%
%TO.N,Net-(U1-GPIO6)*%
X38610000Y33810000D03*
%TO.P,U1,10,GPIO7*%
%TO.N,Net-(U1-GPIO7)*%
X38610000Y31270000D03*
%TO.P,U1,11,GPIO8*%
%TO.N,Net-(U1-GPIO8)*%
X38610000Y28730000D03*
%TO.P,U1,12,GPIO9*%
%TO.N,Net-(U1-GPIO9)*%
X38610000Y26190000D03*
%TO.P,U1,13,GND*%
%TO.N,GND*%
X38610000Y23650000D03*
%TO.P,U1,14,GPIO10*%
%TO.N,Net-(U1-GPIO10)*%
X38610000Y21110000D03*
%TO.P,U1,15,GPIO11*%
%TO.N,Net-(U1-GPIO11)*%
X38610000Y18570000D03*
%TO.P,U1,16,GPIO12*%
%TO.N,Net-(U1-GPIO12)*%
X38610000Y16030000D03*
%TO.P,U1,17,GPIO13*%
%TO.N,Net-(U1-GPIO13)*%
X38610000Y13490000D03*
%TO.P,U1,18,GND*%
%TO.N,GND*%
X38610000Y10950000D03*
%TO.P,U1,19,GPIO14*%
%TO.N,Net-(U1-GPIO14)*%
X38610000Y8410000D03*
%TO.P,U1,20,GPIO15*%
%TO.N,Net-(U1-GPIO15)*%
X38610000Y5870000D03*
%TO.P,U1,21,GPIO16*%
%TO.N,unconnected-(U1-GPIO16-Pad21)_1*%
X56390000Y5870000D03*
%TO.P,U1,22,GPIO17*%
%TO.N,unconnected-(U1-GPIO17-Pad22)_1*%
X56390000Y8410000D03*
%TO.P,U1,23,GND*%
%TO.N,GND*%
X56390000Y10950000D03*
%TO.P,U1,24,GPIO18*%
%TO.N,unconnected-(U1-GPIO18-Pad24)_1*%
X56390000Y13490000D03*
%TO.P,U1,25,GPIO19*%
%TO.N,unconnected-(U1-GPIO19-Pad25)_1*%
X56390000Y16030000D03*
%TO.P,U1,26,GPIO20*%
%TO.N,unconnected-(U1-GPIO20-Pad26)_1*%
X56390000Y18570000D03*
%TO.P,U1,27,GPIO21*%
%TO.N,unconnected-(U1-GPIO21-Pad27)_1*%
X56390000Y21110000D03*
%TO.P,U1,28,GND*%
%TO.N,GND*%
X56390000Y23650000D03*
%TO.P,U1,29,GPIO22*%
%TO.N,unconnected-(U1-GPIO22-Pad29)_1*%
X56390000Y26190000D03*
%TO.P,U1,30,RUN*%
%TO.N,Net-(U1-RUN)*%
X56390000Y28730000D03*
%TO.P,U1,31,GPIO26_ADC0*%
%TO.N,unconnected-(U1-GPIO26_ADC0-Pad31)_1*%
X56390000Y31270000D03*
%TO.P,U1,32,GPIO27_ADC1*%
%TO.N,unconnected-(U1-GPIO27_ADC1-Pad32)_1*%
X56390000Y33810000D03*
%TO.P,U1,33,AGND*%
%TO.N,GND*%
X56390000Y36350000D03*
%TO.P,U1,34,GPIO28_ADC2*%
%TO.N,unconnected-(U1-GPIO28_ADC2-Pad34)_1*%
X56390000Y38890000D03*
%TO.P,U1,35,ADC_VREF*%
%TO.N,unconnected-(U1-ADC_VREF-Pad35)*%
X56390000Y41430000D03*
%TO.P,U1,36,3V3*%
%TO.N,Net-(U1-3V3)*%
X56390000Y43970000D03*
%TO.P,U1,37,3V3_EN*%
%TO.N,unconnected-(U1-3V3_EN-Pad37)*%
X56390000Y46510000D03*
%TO.P,U1,38,GND*%
%TO.N,GND*%
X56390000Y49050000D03*
%TO.P,U1,39,VSYS*%
%TO.N,Net-(D2-K)*%
X56390000Y51590000D03*
%TO.P,U1,40,VBUS*%
%TO.N,unconnected-(U1-VBUS-Pad40)*%
X56390000Y54130000D03*
%TO.P,U1,D1,SWCLK*%
%TO.N,Net-(J2-Pin_1)*%
X44960000Y6100000D03*
%TO.P,U1,D2,GND*%
%TO.N,GND*%
X47500000Y6100000D03*
%TO.P,U1,D3,SWDIO*%
%TO.N,Net-(J2-Pin_3)*%
X50040000Y6100000D03*
%TD*%
D21*
%TO.N,GND*%
X32900000Y10950000D03*
X61900000Y51000000D03*
X68750000Y26830000D03*
X68750000Y39330000D03*
X61000000Y51000000D03*
X32000000Y10950000D03*
X32900000Y3330000D03*
X69700000Y43970000D03*
X68800000Y43970000D03*
X32000000Y3330000D03*
%TO.N,Net-(U1-GPIO13)*%
X33000000Y17200000D03*
%TO.N,Net-(U1-GPIO12)*%
X34550000Y16030000D03*
%TD*%
D22*
%TO.N,Net-(U1-GPIO13)*%
X4100000Y20200000D02*
X4600000Y19700000D01*
X4100000Y35600000D02*
X4100000Y20200000D01*
X8420000Y36100000D02*
X4600000Y36100000D01*
X4600000Y36100000D02*
X4100000Y35600000D01*
X30500000Y19700000D02*
X33000000Y17200000D01*
X4600000Y19700000D02*
X30500000Y19700000D01*
%TO.N,Net-(U1-GPIO12)*%
X8420000Y38390000D02*
X4000000Y38390000D01*
X4000000Y38390000D02*
X3500000Y37890000D01*
X32020000Y16030000D02*
X34550000Y16030000D01*
X28950000Y19100000D02*
X32020000Y16030000D01*
X4300000Y19100000D02*
X28950000Y19100000D01*
X3500000Y19900000D02*
X4300000Y19100000D01*
X3500000Y37890000D02*
X3500000Y19900000D01*
%TD*%
%TA.AperFunction,Conductor*%
%TO.N,GND*%
G36*
X37983740Y55479815D02*
G01*
X38029495Y55427011D01*
X38039439Y55357853D01*
X38010414Y55294297D01*
X37972996Y55265015D01*
X37928386Y55242285D01*
X37762786Y55121972D01*
X37618028Y54977214D01*
X37497715Y54811614D01*
X37404781Y54629224D01*
X37341522Y54434535D01*
X37309500Y54232352D01*
X37309500Y54027649D01*
X37341522Y53825466D01*
X37404781Y53630777D01*
X37497715Y53448387D01*
X37618028Y53282787D01*
X37762786Y53138029D01*
X37917749Y53025444D01*
X37928390Y53017713D01*
X38019840Y52971117D01*
X38021080Y52970485D01*
X38071876Y52922510D01*
X38088671Y52854689D01*
X38066134Y52788554D01*
X38021080Y52749515D01*
X37928386Y52702285D01*
X37762786Y52581972D01*
X37618028Y52437214D01*
X37497715Y52271614D01*
X37404781Y52089224D01*
X37341522Y51894535D01*
X37309500Y51692352D01*
X37309500Y51487649D01*
X37341522Y51285466D01*
X37404781Y51090777D01*
X37497715Y50908387D01*
X37618028Y50742787D01*
X37762786Y50598029D01*
X37928385Y50477716D01*
X37928387Y50477715D01*
X37928390Y50477713D01*
X38021630Y50430205D01*
X38072426Y50382230D01*
X38089221Y50314409D01*
X38066684Y50248275D01*
X38021630Y50209235D01*
X37928644Y50161857D01*
X37884077Y50129477D01*
X37884077Y50129476D01*
X38480591Y49532963D01*
X38417007Y49515925D01*
X38302993Y49450099D01*
X38209901Y49357007D01*
X38144075Y49242993D01*
X38127037Y49179410D01*
X37530524Y49775923D01*
X37530523Y49775923D01*
X37498143Y49731356D01*
X37405244Y49549032D01*
X37342009Y49354418D01*
X37310000Y49152318D01*
X37310000Y48947683D01*
X37342009Y48745583D01*
X37405244Y48550969D01*
X37498141Y48368650D01*
X37498147Y48368641D01*
X37530523Y48324079D01*
X37530524Y48324078D01*
X38127037Y48920591D01*
X38144075Y48857007D01*
X38209901Y48742993D01*
X38302993Y48649901D01*
X38417007Y48584075D01*
X38480590Y48567038D01*
X37884076Y47970526D01*
X37928652Y47938139D01*
X38021628Y47890766D01*
X38072425Y47842792D01*
X38089220Y47774971D01*
X38066683Y47708836D01*
X38021630Y47669797D01*
X37928388Y47622287D01*
X37762786Y47501972D01*
X37618028Y47357214D01*
X37497715Y47191614D01*
X37404781Y47009224D01*
X37341522Y46814535D01*
X37309500Y46612352D01*
X37309500Y46407649D01*
X37341522Y46205466D01*
X37404781Y46010777D01*
X37497715Y45828387D01*
X37618028Y45662787D01*
X37762786Y45518029D01*
X37917749Y45405444D01*
X37928390Y45397713D01*
X38019840Y45351117D01*
X38021080Y45350485D01*
X38071876Y45302510D01*
X38088671Y45234689D01*
X38066134Y45168554D01*
X38021080Y45129515D01*
X37928386Y45082285D01*
X37762786Y44961972D01*
X37618028Y44817214D01*
X37497715Y44651614D01*
X37404781Y44469224D01*
X37341522Y44274535D01*
X37309500Y44072352D01*
X37309500Y43867649D01*
X37341522Y43665466D01*
X37404781Y43470777D01*
X37497715Y43288387D01*
X37618028Y43122787D01*
X37762786Y42978029D01*
X37917749Y42865444D01*
X37928390Y42857713D01*
X38019840Y42811117D01*
X38021080Y42810485D01*
X38071876Y42762510D01*
X38088671Y42694689D01*
X38066134Y42628554D01*
X38021080Y42589515D01*
X37928386Y42542285D01*
X37762786Y42421972D01*
X37618028Y42277214D01*
X37497715Y42111614D01*
X37404781Y41929224D01*
X37341522Y41734535D01*
X37309500Y41532352D01*
X37309500Y41327649D01*
X37341522Y41125466D01*
X37404781Y40930777D01*
X37497715Y40748387D01*
X37618028Y40582787D01*
X37762786Y40438029D01*
X37916369Y40326447D01*
X37928390Y40317713D01*
X38002600Y40279901D01*
X38021080Y40270485D01*
X38071876Y40222510D01*
X38088671Y40154689D01*
X38066134Y40088554D01*
X38021080Y40049515D01*
X37928386Y40002285D01*
X37762786Y39881972D01*
X37618028Y39737214D01*
X37497715Y39571614D01*
X37404781Y39389224D01*
X37341522Y39194535D01*
X37309500Y38992352D01*
X37309500Y38787649D01*
X37341522Y38585466D01*
X37404781Y38390777D01*
X37497715Y38208387D01*
X37618028Y38042787D01*
X37762786Y37898029D01*
X37928385Y37777716D01*
X37928387Y37777715D01*
X37928390Y37777713D01*
X37992956Y37744815D01*
X38021630Y37730205D01*
X38072426Y37682230D01*
X38089221Y37614409D01*
X38066684Y37548275D01*
X38021630Y37509235D01*
X37928644Y37461857D01*
X37884077Y37429477D01*
X37884077Y37429476D01*
X38480591Y36832963D01*
X38417007Y36815925D01*
X38302993Y36750099D01*
X38209901Y36657007D01*
X38144075Y36542993D01*
X38127037Y36479410D01*
X37530524Y37075923D01*
X37530523Y37075923D01*
X37498143Y37031356D01*
X37405244Y36849032D01*
X37342009Y36654418D01*
X37310000Y36452318D01*
X37310000Y36247683D01*
X37342009Y36045583D01*
X37405244Y35850969D01*
X37498141Y35668650D01*
X37498147Y35668641D01*
X37530523Y35624079D01*
X37530524Y35624078D01*
X38127037Y36220591D01*
X38144075Y36157007D01*
X38209901Y36042993D01*
X38302993Y35949901D01*
X38417007Y35884075D01*
X38480590Y35867038D01*
X37884076Y35270526D01*
X37928652Y35238139D01*
X38021628Y35190766D01*
X38072425Y35142792D01*
X38089220Y35074971D01*
X38066683Y35008836D01*
X38021630Y34969797D01*
X37928388Y34922287D01*
X37762786Y34801972D01*
X37618028Y34657214D01*
X37497715Y34491614D01*
X37404781Y34309224D01*
X37341522Y34114535D01*
X37309500Y33912352D01*
X37309500Y33707649D01*
X37341522Y33505466D01*
X37404781Y33310777D01*
X37444303Y33233212D01*
X37496421Y33130925D01*
X37497715Y33128387D01*
X37618028Y32962787D01*
X37762786Y32818029D01*
X37882813Y32730826D01*
X37928390Y32697713D01*
X37992591Y32665001D01*
X38021080Y32650485D01*
X38071876Y32602510D01*
X38088671Y32534689D01*
X38066134Y32468554D01*
X38021080Y32429515D01*
X37928386Y32382285D01*
X37762786Y32261972D01*
X37618028Y32117214D01*
X37497715Y31951614D01*
X37404781Y31769224D01*
X37341522Y31574535D01*
X37309500Y31372352D01*
X37309500Y31167649D01*
X37341522Y30965466D01*
X37404781Y30770777D01*
X37497715Y30588387D01*
X37618028Y30422787D01*
X37762786Y30278029D01*
X37894952Y30182007D01*
X37928390Y30157713D01*
X38019840Y30111117D01*
X38021080Y30110485D01*
X38071876Y30062510D01*
X38088671Y29994689D01*
X38066134Y29928554D01*
X38021080Y29889515D01*
X37928386Y29842285D01*
X37762786Y29721972D01*
X37618028Y29577214D01*
X37497715Y29411614D01*
X37404781Y29229224D01*
X37341522Y29034535D01*
X37309500Y28832352D01*
X37309500Y28627649D01*
X37341522Y28425466D01*
X37404781Y28230777D01*
X37497715Y28048387D01*
X37618028Y27882787D01*
X37762786Y27738029D01*
X37917749Y27625444D01*
X37928390Y27617713D01*
X38019840Y27571117D01*
X38021080Y27570485D01*
X38071876Y27522510D01*
X38088671Y27454689D01*
X38066134Y27388554D01*
X38021080Y27349515D01*
X37928386Y27302285D01*
X37762786Y27181972D01*
X37618028Y27037214D01*
X37497715Y26871614D01*
X37404781Y26689224D01*
X37341522Y26494535D01*
X37309500Y26292352D01*
X37309500Y26087649D01*
X37341522Y25885466D01*
X37404781Y25690777D01*
X37453003Y25596138D01*
X37492772Y25518087D01*
X37497715Y25508387D01*
X37618028Y25342787D01*
X37762786Y25198029D01*
X37928385Y25077716D01*
X37928387Y25077715D01*
X37928390Y25077713D01*
X37946835Y25068315D01*
X38021630Y25030205D01*
X38072426Y24982230D01*
X38089221Y24914409D01*
X38066684Y24848275D01*
X38021630Y24809235D01*
X37928644Y24761857D01*
X37884077Y24729477D01*
X37884077Y24729476D01*
X38480591Y24132963D01*
X38417007Y24115925D01*
X38302993Y24050099D01*
X38209901Y23957007D01*
X38144075Y23842993D01*
X38127037Y23779410D01*
X37530524Y24375923D01*
X37530523Y24375923D01*
X37498143Y24331356D01*
X37405244Y24149032D01*
X37342009Y23954418D01*
X37310000Y23752318D01*
X37310000Y23547683D01*
X37342009Y23345583D01*
X37405244Y23150969D01*
X37498141Y22968650D01*
X37498147Y22968641D01*
X37530523Y22924079D01*
X37530524Y22924078D01*
X38127037Y23520591D01*
X38144075Y23457007D01*
X38209901Y23342993D01*
X38302993Y23249901D01*
X38417007Y23184075D01*
X38480590Y23167038D01*
X37884076Y22570526D01*
X37928652Y22538139D01*
X38021628Y22490766D01*
X38072425Y22442792D01*
X38089220Y22374971D01*
X38066683Y22308836D01*
X38021630Y22269797D01*
X37928388Y22222287D01*
X37762786Y22101972D01*
X37618028Y21957214D01*
X37497715Y21791614D01*
X37404781Y21609224D01*
X37341522Y21414535D01*
X37309500Y21212352D01*
X37309500Y21007649D01*
X37341522Y20805466D01*
X37404781Y20610777D01*
X37497715Y20428387D01*
X37618028Y20262787D01*
X37762786Y20118029D01*
X37917749Y20005444D01*
X37928390Y19997713D01*
X37999252Y19961607D01*
X38021080Y19950485D01*
X38071876Y19902510D01*
X38088671Y19834689D01*
X38066134Y19768554D01*
X38021080Y19729515D01*
X37928386Y19682285D01*
X37762786Y19561972D01*
X37618028Y19417214D01*
X37497715Y19251614D01*
X37404781Y19069224D01*
X37341522Y18874535D01*
X37309500Y18672352D01*
X37309500Y18467649D01*
X37341522Y18265466D01*
X37404781Y18070777D01*
X37497715Y17888387D01*
X37618028Y17722787D01*
X37762786Y17578029D01*
X37917749Y17465444D01*
X37928390Y17457713D01*
X38019840Y17411117D01*
X38021080Y17410485D01*
X38071876Y17362510D01*
X38088671Y17294689D01*
X38066134Y17228554D01*
X38021080Y17189515D01*
X37928386Y17142285D01*
X37762786Y17021972D01*
X37618028Y16877214D01*
X37497715Y16711614D01*
X37404781Y16529224D01*
X37341522Y16334535D01*
X37309500Y16132352D01*
X37309500Y15927649D01*
X37341522Y15725466D01*
X37404781Y15530777D01*
X37442902Y15455962D01*
X37487629Y15368180D01*
X37497715Y15348387D01*
X37618028Y15182787D01*
X37762786Y15038029D01*
X37917749Y14925444D01*
X37928390Y14917713D01*
X38018839Y14871627D01*
X38021080Y14870485D01*
X38071876Y14822510D01*
X38088671Y14754689D01*
X38066134Y14688554D01*
X38021080Y14649515D01*
X37928386Y14602285D01*
X37762786Y14481972D01*
X37618028Y14337214D01*
X37497715Y14171614D01*
X37404781Y13989224D01*
X37341522Y13794535D01*
X37309500Y13592352D01*
X37309500Y13387649D01*
X37341522Y13185466D01*
X37404781Y12990777D01*
X37497715Y12808387D01*
X37618028Y12642787D01*
X37762786Y12498029D01*
X37928385Y12377716D01*
X37928387Y12377715D01*
X37928390Y12377713D01*
X38021630Y12330205D01*
X38072426Y12282230D01*
X38089221Y12214409D01*
X38066684Y12148275D01*
X38021630Y12109235D01*
X37928644Y12061857D01*
X37884077Y12029477D01*
X37884077Y12029476D01*
X38480591Y11432963D01*
X38417007Y11415925D01*
X38302993Y11350099D01*
X38209901Y11257007D01*
X38144075Y11142993D01*
X38127037Y11079410D01*
X37530524Y11675923D01*
X37530523Y11675923D01*
X37498143Y11631356D01*
X37405244Y11449032D01*
X37342009Y11254418D01*
X37310000Y11052318D01*
X37310000Y10847683D01*
X37342009Y10645583D01*
X37405244Y10450969D01*
X37498141Y10268650D01*
X37498147Y10268641D01*
X37530523Y10224079D01*
X37530524Y10224078D01*
X38127037Y10820591D01*
X38144075Y10757007D01*
X38209901Y10642993D01*
X38302993Y10549901D01*
X38417007Y10484075D01*
X38480590Y10467038D01*
X37884076Y9870526D01*
X37928652Y9838139D01*
X38021628Y9790766D01*
X38072425Y9742792D01*
X38089220Y9674971D01*
X38066683Y9608836D01*
X38021630Y9569797D01*
X37928388Y9522287D01*
X37762786Y9401972D01*
X37618028Y9257214D01*
X37497715Y9091614D01*
X37404781Y8909224D01*
X37341522Y8714535D01*
X37309500Y8512352D01*
X37309500Y8307649D01*
X37341522Y8105466D01*
X37404781Y7910777D01*
X37497715Y7728387D01*
X37618028Y7562787D01*
X37762786Y7418029D01*
X37917749Y7305444D01*
X37928390Y7297713D01*
X38019840Y7251117D01*
X38021080Y7250485D01*
X38071876Y7202510D01*
X38088671Y7134689D01*
X38066134Y7068554D01*
X38021080Y7029515D01*
X37928386Y6982285D01*
X37762786Y6861972D01*
X37618028Y6717214D01*
X37497715Y6551614D01*
X37404781Y6369224D01*
X37341522Y6174535D01*
X37309500Y5972352D01*
X37309500Y5767649D01*
X37341522Y5565466D01*
X37404781Y5370777D01*
X37439201Y5303226D01*
X37492672Y5198283D01*
X37497715Y5188387D01*
X37618028Y5022787D01*
X37762786Y4878029D01*
X37888860Y4786433D01*
X37928390Y4757713D01*
X38044607Y4698497D01*
X38110776Y4664782D01*
X38110778Y4664782D01*
X38110781Y4664780D01*
X38175499Y4643752D01*
X38305465Y4601523D01*
X38406557Y4585512D01*
X38507648Y4569500D01*
X38507649Y4569500D01*
X38712351Y4569500D01*
X38712352Y4569500D01*
X38914534Y4601523D01*
X39109219Y4664780D01*
X39291610Y4757713D01*
X39395306Y4833052D01*
X39457213Y4878029D01*
X39457215Y4878032D01*
X39457219Y4878034D01*
X39601966Y5022781D01*
X39601968Y5022785D01*
X39601971Y5022787D01*
X39677228Y5126371D01*
X39722287Y5188390D01*
X39815220Y5370781D01*
X39878477Y5565466D01*
X39910500Y5767648D01*
X39910500Y5972352D01*
X39878477Y6174534D01*
X39869438Y6202352D01*
X43659500Y6202352D01*
X43659500Y5997649D01*
X43691522Y5795466D01*
X43754781Y5600777D01*
X43818691Y5475347D01*
X43847585Y5418641D01*
X43847715Y5418387D01*
X43968028Y5252787D01*
X44112786Y5108029D01*
X44233226Y5020526D01*
X44278390Y4987713D01*
X44394607Y4928497D01*
X44460776Y4894782D01*
X44460778Y4894782D01*
X44460781Y4894780D01*
X44565137Y4860873D01*
X44655465Y4831523D01*
X44756557Y4815512D01*
X44857648Y4799500D01*
X44857649Y4799500D01*
X45062351Y4799500D01*
X45062352Y4799500D01*
X45264534Y4831523D01*
X45459219Y4894780D01*
X45641610Y4987713D01*
X45734590Y5055268D01*
X45807213Y5108029D01*
X45807215Y5108032D01*
X45807219Y5108034D01*
X45951966Y5252781D01*
X45951968Y5252785D01*
X45951971Y5252787D01*
X46042375Y5377220D01*
X46072287Y5418390D01*
X46119795Y5511631D01*
X46167769Y5562427D01*
X46235590Y5579222D01*
X46301725Y5556685D01*
X46340765Y5511631D01*
X46388141Y5418650D01*
X46388147Y5418641D01*
X46420523Y5374079D01*
X46420524Y5374078D01*
X47017037Y5970591D01*
X47034075Y5907007D01*
X47099901Y5792993D01*
X47192993Y5699901D01*
X47307007Y5634075D01*
X47370590Y5617038D01*
X46774076Y5020526D01*
X46818650Y4988141D01*
X47000968Y4895245D01*
X47195582Y4832010D01*
X47397683Y4800000D01*
X47602317Y4800000D01*
X47804417Y4832010D01*
X47999031Y4895245D01*
X48181349Y4988141D01*
X48225921Y5020526D01*
X47629409Y5617038D01*
X47692993Y5634075D01*
X47807007Y5699901D01*
X47900099Y5792993D01*
X47965925Y5907007D01*
X47982962Y5970590D01*
X48579474Y5374078D01*
X48579474Y5374079D01*
X48611861Y5418653D01*
X48611861Y5418654D01*
X48659234Y5511629D01*
X48707208Y5562425D01*
X48775028Y5579221D01*
X48841164Y5556684D01*
X48880203Y5511631D01*
X48927713Y5418389D01*
X49048028Y5252787D01*
X49192786Y5108029D01*
X49313226Y5020526D01*
X49358390Y4987713D01*
X49474607Y4928497D01*
X49540776Y4894782D01*
X49540778Y4894782D01*
X49540781Y4894780D01*
X49645137Y4860873D01*
X49735465Y4831523D01*
X49836557Y4815512D01*
X49937648Y4799500D01*
X49937649Y4799500D01*
X50142351Y4799500D01*
X50142352Y4799500D01*
X50344534Y4831523D01*
X50539219Y4894780D01*
X50721610Y4987713D01*
X50814590Y5055268D01*
X50887213Y5108029D01*
X50887215Y5108032D01*
X50887219Y5108034D01*
X51031966Y5252781D01*
X51031968Y5252785D01*
X51031971Y5252787D01*
X51117697Y5370781D01*
X51152287Y5418390D01*
X51245220Y5600781D01*
X51308477Y5795466D01*
X51340500Y5997648D01*
X51340500Y6202352D01*
X51331771Y6257466D01*
X51308477Y6404535D01*
X51245218Y6599224D01*
X51204709Y6678726D01*
X51152287Y6781610D01*
X51120092Y6825923D01*
X51031971Y6947214D01*
X50887213Y7091972D01*
X50721613Y7212285D01*
X50721612Y7212286D01*
X50721610Y7212287D01*
X50664653Y7241309D01*
X50539223Y7305219D01*
X50344534Y7368478D01*
X50169995Y7396122D01*
X50142352Y7400500D01*
X49937648Y7400500D01*
X49913329Y7396649D01*
X49735465Y7368478D01*
X49540776Y7305219D01*
X49358386Y7212285D01*
X49192786Y7091972D01*
X49048028Y6947214D01*
X48927713Y6781612D01*
X48880203Y6688370D01*
X48832228Y6637574D01*
X48764407Y6620780D01*
X48698272Y6643318D01*
X48659234Y6688372D01*
X48611861Y6781348D01*
X48579474Y6825923D01*
X48579474Y6825924D01*
X47982962Y6229411D01*
X47965925Y6292993D01*
X47900099Y6407007D01*
X47807007Y6500099D01*
X47692993Y6565925D01*
X47629408Y6582963D01*
X48225922Y7179476D01*
X48225921Y7179477D01*
X48181359Y7211853D01*
X48181350Y7211859D01*
X47999031Y7304756D01*
X47804417Y7367991D01*
X47602317Y7400000D01*
X47397683Y7400000D01*
X47195582Y7367991D01*
X47000968Y7304756D01*
X46818644Y7211857D01*
X46774077Y7179477D01*
X46774077Y7179476D01*
X47370591Y6582963D01*
X47307007Y6565925D01*
X47192993Y6500099D01*
X47099901Y6407007D01*
X47034075Y6292993D01*
X47017037Y6229410D01*
X46420524Y6825923D01*
X46420523Y6825923D01*
X46388143Y6781356D01*
X46340765Y6688370D01*
X46292790Y6637574D01*
X46224969Y6620779D01*
X46158834Y6643317D01*
X46119795Y6688370D01*
X46105096Y6717219D01*
X46072287Y6781610D01*
X46072285Y6781613D01*
X46072284Y6781615D01*
X45951971Y6947214D01*
X45807213Y7091972D01*
X45641613Y7212285D01*
X45641612Y7212286D01*
X45641610Y7212287D01*
X45584653Y7241309D01*
X45459223Y7305219D01*
X45264534Y7368478D01*
X45089995Y7396122D01*
X45062352Y7400500D01*
X44857648Y7400500D01*
X44833329Y7396649D01*
X44655465Y7368478D01*
X44460776Y7305219D01*
X44278386Y7212285D01*
X44112786Y7091972D01*
X43968028Y6947214D01*
X43847715Y6781614D01*
X43754781Y6599224D01*
X43691522Y6404535D01*
X43659500Y6202352D01*
X39869438Y6202352D01*
X39815220Y6369219D01*
X39815218Y6369222D01*
X39815218Y6369224D01*
X39772249Y6453554D01*
X39722287Y6551610D01*
X39711887Y6565925D01*
X39601971Y6717214D01*
X39457213Y6861972D01*
X39291614Y6982285D01*
X39285006Y6985652D01*
X39198917Y7029517D01*
X39148123Y7077489D01*
X39131328Y7145310D01*
X39153865Y7211445D01*
X39198917Y7250484D01*
X39291610Y7297713D01*
X39312770Y7313087D01*
X39457213Y7418029D01*
X39457215Y7418032D01*
X39457219Y7418034D01*
X39601966Y7562781D01*
X39601968Y7562785D01*
X39601971Y7562787D01*
X39654732Y7635410D01*
X39722287Y7728390D01*
X39815220Y7910781D01*
X39878477Y8105466D01*
X39910500Y8307648D01*
X39910500Y8512352D01*
X39878477Y8714534D01*
X39815220Y8909219D01*
X39815218Y8909222D01*
X39815218Y8909224D01*
X39759213Y9019138D01*
X39722287Y9091610D01*
X39714556Y9102251D01*
X39601971Y9257214D01*
X39457213Y9401972D01*
X39291611Y9522287D01*
X39198369Y9569797D01*
X39147574Y9617771D01*
X39130779Y9685593D01*
X39153317Y9751727D01*
X39198371Y9790766D01*
X39291346Y9838139D01*
X39291347Y9838139D01*
X39335921Y9870526D01*
X38739409Y10467038D01*
X38802993Y10484075D01*
X38917007Y10549901D01*
X39010099Y10642993D01*
X39075925Y10757007D01*
X39092962Y10820590D01*
X39689474Y10224078D01*
X39689474Y10224079D01*
X39721859Y10268651D01*
X39814755Y10450969D01*
X39877990Y10645583D01*
X39910000Y10847683D01*
X39910000Y11052318D01*
X39877990Y11254418D01*
X39814755Y11449032D01*
X39721859Y11631350D01*
X39689474Y11675923D01*
X39689474Y11675924D01*
X39092962Y11079411D01*
X39075925Y11142993D01*
X39010099Y11257007D01*
X38917007Y11350099D01*
X38802993Y11415925D01*
X38739408Y11432963D01*
X39335922Y12029476D01*
X39335921Y12029477D01*
X39291359Y12061853D01*
X39291350Y12061859D01*
X39198369Y12109235D01*
X39147573Y12157210D01*
X39130778Y12225031D01*
X39153315Y12291165D01*
X39198370Y12330205D01*
X39291610Y12377713D01*
X39341144Y12413702D01*
X39457213Y12498029D01*
X39457215Y12498032D01*
X39457219Y12498034D01*
X39601966Y12642781D01*
X39601968Y12642785D01*
X39601971Y12642787D01*
X39654732Y12715410D01*
X39722287Y12808390D01*
X39815220Y12990781D01*
X39878477Y13185466D01*
X39910500Y13387648D01*
X39910500Y13592352D01*
X39878477Y13794534D01*
X39815220Y13989219D01*
X39815218Y13989222D01*
X39815218Y13989224D01*
X39749778Y14117655D01*
X39722287Y14171610D01*
X39709717Y14188911D01*
X39601971Y14337214D01*
X39457213Y14481972D01*
X39291614Y14602285D01*
X39285006Y14605652D01*
X39198917Y14649517D01*
X39148123Y14697489D01*
X39131328Y14765310D01*
X39153865Y14831445D01*
X39198917Y14870484D01*
X39291610Y14917713D01*
X39312770Y14933087D01*
X39457213Y15038029D01*
X39457215Y15038032D01*
X39457219Y15038034D01*
X39601966Y15182781D01*
X39601968Y15182785D01*
X39601971Y15182787D01*
X39709315Y15330536D01*
X39722287Y15348390D01*
X39815220Y15530781D01*
X39878477Y15725466D01*
X39910500Y15927648D01*
X39910500Y16132352D01*
X39878477Y16334535D01*
X39849127Y16424863D01*
X39815220Y16529219D01*
X39815218Y16529222D01*
X39815218Y16529224D01*
X39777097Y16604039D01*
X39722287Y16711610D01*
X39675995Y16775326D01*
X39601971Y16877214D01*
X39457213Y17021972D01*
X39291614Y17142285D01*
X39247920Y17164548D01*
X39198917Y17189517D01*
X39148123Y17237489D01*
X39131328Y17305310D01*
X39153865Y17371445D01*
X39198917Y17410484D01*
X39291610Y17457713D01*
X39312770Y17473087D01*
X39457213Y17578029D01*
X39457215Y17578032D01*
X39457219Y17578034D01*
X39601966Y17722781D01*
X39601968Y17722785D01*
X39601971Y17722787D01*
X39654732Y17795410D01*
X39722287Y17888390D01*
X39815220Y18070781D01*
X39878477Y18265466D01*
X39910500Y18467648D01*
X39910500Y18672352D01*
X39878477Y18874534D01*
X39862358Y18924142D01*
X39815218Y19069224D01*
X39781503Y19135393D01*
X39722287Y19251610D01*
X39714556Y19262251D01*
X39601971Y19417214D01*
X39457213Y19561972D01*
X39291614Y19682285D01*
X39285006Y19685652D01*
X39198917Y19729517D01*
X39148123Y19777489D01*
X39131328Y19845310D01*
X39153865Y19911445D01*
X39198917Y19950484D01*
X39291610Y19997713D01*
X39312770Y20013087D01*
X39457213Y20118029D01*
X39457215Y20118032D01*
X39457219Y20118034D01*
X39601966Y20262781D01*
X39601968Y20262785D01*
X39601971Y20262787D01*
X39661282Y20344423D01*
X39722287Y20428390D01*
X39815220Y20610781D01*
X39878477Y20805466D01*
X39910500Y21007648D01*
X39910500Y21212352D01*
X39878477Y21414534D01*
X39877318Y21418100D01*
X39849127Y21504863D01*
X39815220Y21609219D01*
X39815218Y21609222D01*
X39815218Y21609224D01*
X39781503Y21675393D01*
X39722287Y21791610D01*
X39705355Y21814915D01*
X39601971Y21957214D01*
X39457213Y22101972D01*
X39291611Y22222287D01*
X39198369Y22269797D01*
X39147574Y22317771D01*
X39130779Y22385593D01*
X39153317Y22451727D01*
X39198371Y22490766D01*
X39291346Y22538139D01*
X39291347Y22538139D01*
X39335921Y22570526D01*
X38739409Y23167038D01*
X38802993Y23184075D01*
X38917007Y23249901D01*
X39010099Y23342993D01*
X39075925Y23457007D01*
X39092962Y23520590D01*
X39689474Y22924078D01*
X39689474Y22924079D01*
X39721859Y22968651D01*
X39814755Y23150969D01*
X39877990Y23345583D01*
X39910000Y23547683D01*
X39910000Y23752318D01*
X39877990Y23954418D01*
X39814755Y24149032D01*
X39721859Y24331350D01*
X39689474Y24375923D01*
X39689474Y24375924D01*
X39092962Y23779411D01*
X39075925Y23842993D01*
X39010099Y23957007D01*
X38917007Y24050099D01*
X38802993Y24115925D01*
X38739408Y24132963D01*
X39335922Y24729476D01*
X39335921Y24729477D01*
X39291359Y24761853D01*
X39291350Y24761859D01*
X39198369Y24809235D01*
X39147573Y24857210D01*
X39130778Y24925031D01*
X39153315Y24991165D01*
X39198370Y25030205D01*
X39273165Y25068315D01*
X39291610Y25077713D01*
X39341144Y25113702D01*
X39457213Y25198029D01*
X39457215Y25198032D01*
X39457219Y25198034D01*
X39601966Y25342781D01*
X39601968Y25342785D01*
X39601971Y25342787D01*
X39654732Y25415410D01*
X39722287Y25508390D01*
X39815220Y25690781D01*
X39878477Y25885466D01*
X39910500Y26087648D01*
X39910500Y26292352D01*
X39878477Y26494534D01*
X39815220Y26689219D01*
X39815218Y26689222D01*
X39815218Y26689224D01*
X39781503Y26755393D01*
X39722287Y26871610D01*
X39714556Y26882251D01*
X39601971Y27037214D01*
X39457213Y27181972D01*
X39291614Y27302285D01*
X39285006Y27305652D01*
X39198917Y27349517D01*
X39148123Y27397489D01*
X39131328Y27465310D01*
X39153865Y27531445D01*
X39198917Y27570484D01*
X39291610Y27617713D01*
X39312770Y27633087D01*
X39457213Y27738029D01*
X39457215Y27738032D01*
X39457219Y27738034D01*
X39601966Y27882781D01*
X39601968Y27882785D01*
X39601971Y27882787D01*
X39654732Y27955410D01*
X39722287Y28048390D01*
X39815220Y28230781D01*
X39878477Y28425466D01*
X39910500Y28627648D01*
X39910500Y28832352D01*
X39878477Y29034534D01*
X39815220Y29229219D01*
X39815218Y29229222D01*
X39815218Y29229224D01*
X39774441Y29309252D01*
X39722287Y29411610D01*
X39714556Y29422251D01*
X39601971Y29577214D01*
X39457213Y29721972D01*
X39291614Y29842285D01*
X39227407Y29875000D01*
X39198917Y29889517D01*
X39148123Y29937489D01*
X39131328Y30005310D01*
X39153865Y30071445D01*
X39198917Y30110484D01*
X39291610Y30157713D01*
X39325048Y30182007D01*
X39457213Y30278029D01*
X39457215Y30278032D01*
X39457219Y30278034D01*
X39601966Y30422781D01*
X39601968Y30422785D01*
X39601971Y30422787D01*
X39692387Y30547236D01*
X39722287Y30588390D01*
X39815220Y30770781D01*
X39878477Y30965466D01*
X39910500Y31167648D01*
X39910500Y31372352D01*
X39878477Y31574534D01*
X39875885Y31582510D01*
X39815218Y31769224D01*
X39781503Y31835393D01*
X39722287Y31951610D01*
X39714556Y31962251D01*
X39601971Y32117214D01*
X39457213Y32261972D01*
X39291614Y32382285D01*
X39265272Y32395707D01*
X39198917Y32429517D01*
X39148123Y32477489D01*
X39131328Y32545310D01*
X39153865Y32611445D01*
X39198917Y32650484D01*
X39291610Y32697713D01*
X39345131Y32736598D01*
X39457213Y32818029D01*
X39457215Y32818032D01*
X39457219Y32818034D01*
X39601966Y32962781D01*
X39601968Y32962785D01*
X39601971Y32962787D01*
X39676304Y33065099D01*
X39722287Y33128390D01*
X39815220Y33310781D01*
X39878477Y33505466D01*
X39910500Y33707648D01*
X39910500Y33912352D01*
X39878477Y34114534D01*
X39815220Y34309219D01*
X39815218Y34309222D01*
X39815218Y34309224D01*
X39781503Y34375393D01*
X39722287Y34491610D01*
X39706345Y34513553D01*
X39601971Y34657214D01*
X39457213Y34801972D01*
X39291611Y34922287D01*
X39198369Y34969797D01*
X39147574Y35017771D01*
X39130779Y35085593D01*
X39153317Y35151727D01*
X39198371Y35190766D01*
X39291346Y35238139D01*
X39291347Y35238139D01*
X39335921Y35270526D01*
X38739409Y35867038D01*
X38802993Y35884075D01*
X38917007Y35949901D01*
X39010099Y36042993D01*
X39075925Y36157007D01*
X39092962Y36220590D01*
X39689474Y35624078D01*
X39689474Y35624079D01*
X39721859Y35668651D01*
X39814755Y35850969D01*
X39877990Y36045583D01*
X39910000Y36247683D01*
X39910000Y36452318D01*
X39877990Y36654418D01*
X39814755Y36849032D01*
X39721859Y37031350D01*
X39689474Y37075923D01*
X39689474Y37075924D01*
X39092962Y36479411D01*
X39075925Y36542993D01*
X39010099Y36657007D01*
X38917007Y36750099D01*
X38802993Y36815925D01*
X38739408Y36832963D01*
X39335922Y37429476D01*
X39335921Y37429477D01*
X39291359Y37461853D01*
X39291350Y37461859D01*
X39198369Y37509235D01*
X39147573Y37557210D01*
X39130778Y37625031D01*
X39153315Y37691165D01*
X39198370Y37730205D01*
X39227044Y37744815D01*
X39291610Y37777713D01*
X39352276Y37821789D01*
X39457213Y37898029D01*
X39457215Y37898032D01*
X39457219Y37898034D01*
X39601966Y38042781D01*
X39601968Y38042785D01*
X39601971Y38042787D01*
X39706188Y38186232D01*
X39722287Y38208390D01*
X39815220Y38390781D01*
X39878477Y38585466D01*
X39910500Y38787648D01*
X39910500Y38992352D01*
X39878477Y39194534D01*
X39867144Y39229412D01*
X39815218Y39389224D01*
X39781503Y39455393D01*
X39722287Y39571610D01*
X39696867Y39606598D01*
X39601971Y39737214D01*
X39457213Y39881972D01*
X39291614Y40002285D01*
X39227407Y40035000D01*
X39198917Y40049517D01*
X39148123Y40097489D01*
X39131328Y40165310D01*
X39153865Y40231445D01*
X39198917Y40270484D01*
X39291610Y40317713D01*
X39367697Y40372993D01*
X39457213Y40438029D01*
X39457215Y40438032D01*
X39457219Y40438034D01*
X39601966Y40582781D01*
X39601968Y40582785D01*
X39601971Y40582787D01*
X39654732Y40655410D01*
X39722287Y40748390D01*
X39815220Y40930781D01*
X39878477Y41125466D01*
X39910500Y41327648D01*
X39910500Y41532352D01*
X39889717Y41663569D01*
X39878477Y41734535D01*
X39815218Y41929224D01*
X39749964Y42057290D01*
X39722287Y42111610D01*
X39714556Y42122251D01*
X39601971Y42277214D01*
X39457213Y42421972D01*
X39291614Y42542285D01*
X39285006Y42545652D01*
X39198917Y42589517D01*
X39148123Y42637489D01*
X39131328Y42705310D01*
X39153865Y42771445D01*
X39198917Y42810484D01*
X39291610Y42857713D01*
X39312770Y42873087D01*
X39457213Y42978029D01*
X39457215Y42978032D01*
X39457219Y42978034D01*
X39601966Y43122781D01*
X39601968Y43122785D01*
X39601971Y43122787D01*
X39654732Y43195410D01*
X39722287Y43288390D01*
X39815220Y43470781D01*
X39878477Y43665466D01*
X39910500Y43867648D01*
X39910500Y44072352D01*
X39878477Y44274534D01*
X39815220Y44469219D01*
X39815218Y44469222D01*
X39815218Y44469224D01*
X39781503Y44535393D01*
X39722287Y44651610D01*
X39714556Y44662251D01*
X39601971Y44817214D01*
X39457213Y44961972D01*
X39291614Y45082285D01*
X39285006Y45085652D01*
X39198917Y45129517D01*
X39148123Y45177489D01*
X39131328Y45245310D01*
X39153865Y45311445D01*
X39198917Y45350484D01*
X39291610Y45397713D01*
X39312770Y45413087D01*
X39457213Y45518029D01*
X39457215Y45518032D01*
X39457219Y45518034D01*
X39601966Y45662781D01*
X39601968Y45662785D01*
X39601971Y45662787D01*
X39654732Y45735410D01*
X39722287Y45828390D01*
X39815220Y46010781D01*
X39878477Y46205466D01*
X39910500Y46407648D01*
X39910500Y46612352D01*
X39878477Y46814534D01*
X39878353Y46814915D01*
X39815218Y47009224D01*
X39781503Y47075393D01*
X39722287Y47191610D01*
X39714556Y47202251D01*
X39601971Y47357214D01*
X39457213Y47501972D01*
X39291611Y47622287D01*
X39198369Y47669797D01*
X39147574Y47717771D01*
X39130779Y47785593D01*
X39153317Y47851727D01*
X39198371Y47890766D01*
X39291346Y47938139D01*
X39291347Y47938139D01*
X39335921Y47970526D01*
X38739409Y48567038D01*
X38802993Y48584075D01*
X38917007Y48649901D01*
X39010099Y48742993D01*
X39075925Y48857007D01*
X39092962Y48920590D01*
X39689474Y48324078D01*
X39689474Y48324079D01*
X39721859Y48368651D01*
X39814755Y48550969D01*
X39877990Y48745583D01*
X39910000Y48947683D01*
X39910000Y49152318D01*
X39877990Y49354418D01*
X39814755Y49549032D01*
X39721859Y49731350D01*
X39689474Y49775923D01*
X39689474Y49775924D01*
X39092962Y49179411D01*
X39075925Y49242993D01*
X39010099Y49357007D01*
X38917007Y49450099D01*
X38802993Y49515925D01*
X38739408Y49532963D01*
X39335922Y50129476D01*
X39335921Y50129477D01*
X39291359Y50161853D01*
X39291350Y50161859D01*
X39198369Y50209235D01*
X39147573Y50257210D01*
X39130778Y50325031D01*
X39153315Y50391165D01*
X39198370Y50430205D01*
X39291610Y50477713D01*
X39341144Y50513702D01*
X39457213Y50598029D01*
X39457215Y50598032D01*
X39457219Y50598034D01*
X39601966Y50742781D01*
X39601968Y50742785D01*
X39601971Y50742787D01*
X39683850Y50855486D01*
X39722287Y50908390D01*
X39815220Y51090781D01*
X39878477Y51285466D01*
X39910500Y51487648D01*
X39910500Y51692352D01*
X39878477Y51894534D01*
X39878476Y51894536D01*
X39822799Y52065892D01*
X39815220Y52089219D01*
X39815218Y52089222D01*
X39815218Y52089224D01*
X39781503Y52155393D01*
X39722287Y52271610D01*
X39714556Y52282251D01*
X39601971Y52437214D01*
X39457213Y52581972D01*
X39291614Y52702285D01*
X39285006Y52705652D01*
X39198917Y52749517D01*
X39148123Y52797489D01*
X39131328Y52865310D01*
X39153865Y52931445D01*
X39198917Y52970484D01*
X39291610Y53017713D01*
X39312770Y53033087D01*
X39457213Y53138029D01*
X39457215Y53138032D01*
X39457219Y53138034D01*
X39601966Y53282781D01*
X39601968Y53282785D01*
X39601971Y53282787D01*
X39680277Y53390568D01*
X39722287Y53448390D01*
X39815220Y53630781D01*
X39878477Y53825466D01*
X39910500Y54027648D01*
X39910500Y54232352D01*
X39878477Y54434534D01*
X39815220Y54629219D01*
X39815218Y54629222D01*
X39815218Y54629224D01*
X39757581Y54742341D01*
X39722287Y54811610D01*
X39714556Y54822251D01*
X39601971Y54977214D01*
X39457213Y55121972D01*
X39291613Y55242285D01*
X39291612Y55242286D01*
X39291610Y55242287D01*
X39247004Y55265015D01*
X39196208Y55312990D01*
X39179413Y55380811D01*
X39201951Y55446946D01*
X39256666Y55490397D01*
X39303299Y55499500D01*
X55696701Y55499500D01*
X55763740Y55479815D01*
X55809495Y55427011D01*
X55819439Y55357853D01*
X55790414Y55294297D01*
X55752996Y55265015D01*
X55708386Y55242285D01*
X55542786Y55121972D01*
X55398028Y54977214D01*
X55277715Y54811614D01*
X55184781Y54629224D01*
X55121522Y54434535D01*
X55089500Y54232352D01*
X55089500Y54027649D01*
X55121522Y53825466D01*
X55184781Y53630777D01*
X55277715Y53448387D01*
X55398028Y53282787D01*
X55542786Y53138029D01*
X55697749Y53025444D01*
X55708390Y53017713D01*
X55799840Y52971117D01*
X55801080Y52970485D01*
X55851876Y52922510D01*
X55868671Y52854689D01*
X55846134Y52788554D01*
X55801080Y52749515D01*
X55708386Y52702285D01*
X55542786Y52581972D01*
X55398028Y52437214D01*
X55277715Y52271614D01*
X55184781Y52089224D01*
X55121522Y51894535D01*
X55089500Y51692352D01*
X55089500Y51487649D01*
X55121522Y51285466D01*
X55184781Y51090777D01*
X55277715Y50908387D01*
X55398028Y50742787D01*
X55542786Y50598029D01*
X55708385Y50477716D01*
X55708387Y50477715D01*
X55708390Y50477713D01*
X55801630Y50430205D01*
X55852426Y50382230D01*
X55869221Y50314409D01*
X55846684Y50248275D01*
X55801630Y50209235D01*
X55708644Y50161857D01*
X55664077Y50129477D01*
X55664077Y50129476D01*
X56260591Y49532963D01*
X56197007Y49515925D01*
X56082993Y49450099D01*
X55989901Y49357007D01*
X55924075Y49242993D01*
X55907037Y49179410D01*
X55310524Y49775923D01*
X55310523Y49775923D01*
X55278143Y49731356D01*
X55185244Y49549032D01*
X55122009Y49354418D01*
X55090000Y49152318D01*
X55090000Y48947683D01*
X55122009Y48745583D01*
X55185244Y48550969D01*
X55278141Y48368650D01*
X55278147Y48368641D01*
X55310523Y48324079D01*
X55310524Y48324078D01*
X55907037Y48920591D01*
X55924075Y48857007D01*
X55989901Y48742993D01*
X56082993Y48649901D01*
X56197007Y48584075D01*
X56260590Y48567038D01*
X55664076Y47970526D01*
X55708652Y47938139D01*
X55801628Y47890766D01*
X55852425Y47842792D01*
X55869220Y47774971D01*
X55846683Y47708836D01*
X55801630Y47669797D01*
X55708388Y47622287D01*
X55542786Y47501972D01*
X55398028Y47357214D01*
X55277715Y47191614D01*
X55184781Y47009224D01*
X55121522Y46814535D01*
X55089500Y46612352D01*
X55089500Y46407649D01*
X55121522Y46205466D01*
X55184781Y46010777D01*
X55277715Y45828387D01*
X55398028Y45662787D01*
X55542786Y45518029D01*
X55697749Y45405444D01*
X55708390Y45397713D01*
X55799840Y45351117D01*
X55801080Y45350485D01*
X55851876Y45302510D01*
X55868671Y45234689D01*
X55846134Y45168554D01*
X55801080Y45129515D01*
X55708386Y45082285D01*
X55542786Y44961972D01*
X55398028Y44817214D01*
X55277715Y44651614D01*
X55184781Y44469224D01*
X55121522Y44274535D01*
X55089500Y44072352D01*
X55089500Y43867649D01*
X55121522Y43665466D01*
X55184781Y43470777D01*
X55277715Y43288387D01*
X55398028Y43122787D01*
X55542786Y42978029D01*
X55697749Y42865444D01*
X55708390Y42857713D01*
X55799840Y42811117D01*
X55801080Y42810485D01*
X55851876Y42762510D01*
X55868671Y42694689D01*
X55846134Y42628554D01*
X55801080Y42589515D01*
X55708386Y42542285D01*
X55542786Y42421972D01*
X55398028Y42277214D01*
X55277715Y42111614D01*
X55184781Y41929224D01*
X55121522Y41734535D01*
X55089500Y41532352D01*
X55089500Y41327649D01*
X55121522Y41125466D01*
X55184781Y40930777D01*
X55277715Y40748387D01*
X55398028Y40582787D01*
X55542786Y40438029D01*
X55696369Y40326447D01*
X55708390Y40317713D01*
X55782600Y40279901D01*
X55801080Y40270485D01*
X55851876Y40222510D01*
X55868671Y40154689D01*
X55846134Y40088554D01*
X55801080Y40049515D01*
X55708386Y40002285D01*
X55542786Y39881972D01*
X55398028Y39737214D01*
X55277715Y39571614D01*
X55184781Y39389224D01*
X55121522Y39194535D01*
X55089500Y38992352D01*
X55089500Y38787649D01*
X55121522Y38585466D01*
X55184781Y38390777D01*
X55277715Y38208387D01*
X55398028Y38042787D01*
X55542786Y37898029D01*
X55708385Y37777716D01*
X55708387Y37777715D01*
X55708390Y37777713D01*
X55772956Y37744815D01*
X55801630Y37730205D01*
X55852426Y37682230D01*
X55869221Y37614409D01*
X55846684Y37548275D01*
X55801630Y37509235D01*
X55708644Y37461857D01*
X55664077Y37429477D01*
X55664077Y37429476D01*
X56260591Y36832963D01*
X56197007Y36815925D01*
X56082993Y36750099D01*
X55989901Y36657007D01*
X55924075Y36542993D01*
X55907037Y36479410D01*
X55310524Y37075923D01*
X55310523Y37075923D01*
X55278143Y37031356D01*
X55185244Y36849032D01*
X55122009Y36654418D01*
X55090000Y36452318D01*
X55090000Y36247683D01*
X55122009Y36045583D01*
X55185244Y35850969D01*
X55278141Y35668650D01*
X55278147Y35668641D01*
X55310523Y35624079D01*
X55310524Y35624078D01*
X55907037Y36220591D01*
X55924075Y36157007D01*
X55989901Y36042993D01*
X56082993Y35949901D01*
X56197007Y35884075D01*
X56260590Y35867038D01*
X55664076Y35270526D01*
X55708652Y35238139D01*
X55801628Y35190766D01*
X55852425Y35142792D01*
X55869220Y35074971D01*
X55846683Y35008836D01*
X55801630Y34969797D01*
X55708388Y34922287D01*
X55542786Y34801972D01*
X55398028Y34657214D01*
X55277715Y34491614D01*
X55184781Y34309224D01*
X55121522Y34114535D01*
X55089500Y33912352D01*
X55089500Y33707649D01*
X55121522Y33505466D01*
X55184781Y33310777D01*
X55224303Y33233212D01*
X55276421Y33130925D01*
X55277715Y33128387D01*
X55398028Y32962787D01*
X55542786Y32818029D01*
X55662813Y32730826D01*
X55708390Y32697713D01*
X55772591Y32665001D01*
X55801080Y32650485D01*
X55851876Y32602510D01*
X55868671Y32534689D01*
X55846134Y32468554D01*
X55801080Y32429515D01*
X55708386Y32382285D01*
X55542786Y32261972D01*
X55398028Y32117214D01*
X55277715Y31951614D01*
X55184781Y31769224D01*
X55121522Y31574535D01*
X55089500Y31372352D01*
X55089500Y31167649D01*
X55121522Y30965466D01*
X55184781Y30770777D01*
X55277715Y30588387D01*
X55398028Y30422787D01*
X55542786Y30278029D01*
X55674952Y30182007D01*
X55708390Y30157713D01*
X55799840Y30111117D01*
X55801080Y30110485D01*
X55851876Y30062510D01*
X55868671Y29994689D01*
X55846134Y29928554D01*
X55801080Y29889515D01*
X55708386Y29842285D01*
X55542786Y29721972D01*
X55398028Y29577214D01*
X55277715Y29411614D01*
X55184781Y29229224D01*
X55121522Y29034535D01*
X55089500Y28832352D01*
X55089500Y28627649D01*
X55121522Y28425466D01*
X55184781Y28230777D01*
X55277715Y28048387D01*
X55398028Y27882787D01*
X55542786Y27738029D01*
X55697749Y27625444D01*
X55708390Y27617713D01*
X55799840Y27571117D01*
X55801080Y27570485D01*
X55851876Y27522510D01*
X55868671Y27454689D01*
X55846134Y27388554D01*
X55801080Y27349515D01*
X55708386Y27302285D01*
X55542786Y27181972D01*
X55398028Y27037214D01*
X55277715Y26871614D01*
X55184781Y26689224D01*
X55121522Y26494535D01*
X55089500Y26292352D01*
X55089500Y26087649D01*
X55121522Y25885466D01*
X55184781Y25690777D01*
X55233003Y25596138D01*
X55272772Y25518087D01*
X55277715Y25508387D01*
X55398028Y25342787D01*
X55542786Y25198029D01*
X55708385Y25077716D01*
X55708387Y25077715D01*
X55708390Y25077713D01*
X55726835Y25068315D01*
X55801630Y25030205D01*
X55852426Y24982230D01*
X55869221Y24914409D01*
X55846684Y24848275D01*
X55801630Y24809235D01*
X55708644Y24761857D01*
X55664077Y24729477D01*
X55664077Y24729476D01*
X56260591Y24132963D01*
X56197007Y24115925D01*
X56082993Y24050099D01*
X55989901Y23957007D01*
X55924075Y23842993D01*
X55907037Y23779410D01*
X55310524Y24375923D01*
X55310523Y24375923D01*
X55278143Y24331356D01*
X55185244Y24149032D01*
X55122009Y23954418D01*
X55090000Y23752318D01*
X55090000Y23547683D01*
X55122009Y23345583D01*
X55185244Y23150969D01*
X55278141Y22968650D01*
X55278147Y22968641D01*
X55310523Y22924079D01*
X55310524Y22924078D01*
X55907037Y23520591D01*
X55924075Y23457007D01*
X55989901Y23342993D01*
X56082993Y23249901D01*
X56197007Y23184075D01*
X56260590Y23167038D01*
X55664076Y22570526D01*
X55708652Y22538139D01*
X55801628Y22490766D01*
X55852425Y22442792D01*
X55869220Y22374971D01*
X55846683Y22308836D01*
X55801630Y22269797D01*
X55708388Y22222287D01*
X55542786Y22101972D01*
X55398028Y21957214D01*
X55277715Y21791614D01*
X55184781Y21609224D01*
X55121522Y21414535D01*
X55089500Y21212352D01*
X55089500Y21007649D01*
X55121522Y20805466D01*
X55184781Y20610777D01*
X55277715Y20428387D01*
X55398028Y20262787D01*
X55542786Y20118029D01*
X55697749Y20005444D01*
X55708390Y19997713D01*
X55779252Y19961607D01*
X55801080Y19950485D01*
X55851876Y19902510D01*
X55868671Y19834689D01*
X55846134Y19768554D01*
X55801080Y19729515D01*
X55708386Y19682285D01*
X55542786Y19561972D01*
X55398028Y19417214D01*
X55277715Y19251614D01*
X55184781Y19069224D01*
X55121522Y18874535D01*
X55089500Y18672352D01*
X55089500Y18467649D01*
X55121522Y18265466D01*
X55184781Y18070777D01*
X55277715Y17888387D01*
X55398028Y17722787D01*
X55542786Y17578029D01*
X55697749Y17465444D01*
X55708390Y17457713D01*
X55799840Y17411117D01*
X55801080Y17410485D01*
X55851876Y17362510D01*
X55868671Y17294689D01*
X55846134Y17228554D01*
X55801080Y17189515D01*
X55708386Y17142285D01*
X55542786Y17021972D01*
X55398028Y16877214D01*
X55277715Y16711614D01*
X55184781Y16529224D01*
X55121522Y16334535D01*
X55089500Y16132352D01*
X55089500Y15927649D01*
X55121522Y15725466D01*
X55184781Y15530777D01*
X55222902Y15455962D01*
X55267629Y15368180D01*
X55277715Y15348387D01*
X55398028Y15182787D01*
X55542786Y15038029D01*
X55697749Y14925444D01*
X55708390Y14917713D01*
X55798839Y14871627D01*
X55801080Y14870485D01*
X55851876Y14822510D01*
X55868671Y14754689D01*
X55846134Y14688554D01*
X55801080Y14649515D01*
X55708386Y14602285D01*
X55542786Y14481972D01*
X55398028Y14337214D01*
X55277715Y14171614D01*
X55184781Y13989224D01*
X55121522Y13794535D01*
X55089500Y13592352D01*
X55089500Y13387649D01*
X55121522Y13185466D01*
X55184781Y12990777D01*
X55277715Y12808387D01*
X55398028Y12642787D01*
X55542786Y12498029D01*
X55708385Y12377716D01*
X55708387Y12377715D01*
X55708390Y12377713D01*
X55801630Y12330205D01*
X55852426Y12282230D01*
X55869221Y12214409D01*
X55846684Y12148275D01*
X55801630Y12109235D01*
X55708644Y12061857D01*
X55664077Y12029477D01*
X55664077Y12029476D01*
X56260591Y11432963D01*
X56197007Y11415925D01*
X56082993Y11350099D01*
X55989901Y11257007D01*
X55924075Y11142993D01*
X55907037Y11079410D01*
X55310524Y11675923D01*
X55310523Y11675923D01*
X55278143Y11631356D01*
X55185244Y11449032D01*
X55122009Y11254418D01*
X55090000Y11052318D01*
X55090000Y10847683D01*
X55122009Y10645583D01*
X55185244Y10450969D01*
X55278141Y10268650D01*
X55278147Y10268641D01*
X55310523Y10224079D01*
X55310524Y10224078D01*
X55907037Y10820591D01*
X55924075Y10757007D01*
X55989901Y10642993D01*
X56082993Y10549901D01*
X56197007Y10484075D01*
X56260590Y10467038D01*
X55664076Y9870526D01*
X55708652Y9838139D01*
X55801628Y9790766D01*
X55852425Y9742792D01*
X55869220Y9674971D01*
X55846683Y9608836D01*
X55801630Y9569797D01*
X55708388Y9522287D01*
X55542786Y9401972D01*
X55398028Y9257214D01*
X55277715Y9091614D01*
X55184781Y8909224D01*
X55121522Y8714535D01*
X55089500Y8512352D01*
X55089500Y8307649D01*
X55121522Y8105466D01*
X55184781Y7910777D01*
X55277715Y7728387D01*
X55398028Y7562787D01*
X55542786Y7418029D01*
X55697749Y7305444D01*
X55708390Y7297713D01*
X55799840Y7251117D01*
X55801080Y7250485D01*
X55851876Y7202510D01*
X55868671Y7134689D01*
X55846134Y7068554D01*
X55801080Y7029515D01*
X55708386Y6982285D01*
X55542786Y6861972D01*
X55398028Y6717214D01*
X55277715Y6551614D01*
X55184781Y6369224D01*
X55121522Y6174535D01*
X55089500Y5972352D01*
X55089500Y5767649D01*
X55121522Y5565466D01*
X55184781Y5370777D01*
X55219201Y5303226D01*
X55272672Y5198283D01*
X55277715Y5188387D01*
X55398028Y5022787D01*
X55542786Y4878029D01*
X55668860Y4786433D01*
X55708390Y4757713D01*
X55824607Y4698497D01*
X55890776Y4664782D01*
X55890778Y4664782D01*
X55890781Y4664780D01*
X55955499Y4643752D01*
X56085465Y4601523D01*
X56186557Y4585512D01*
X56287648Y4569500D01*
X56287649Y4569500D01*
X56492351Y4569500D01*
X56492352Y4569500D01*
X56694534Y4601523D01*
X56889219Y4664780D01*
X57071610Y4757713D01*
X57175306Y4833052D01*
X57237213Y4878029D01*
X57237215Y4878032D01*
X57237219Y4878034D01*
X57381966Y5022781D01*
X57381968Y5022785D01*
X57381971Y5022787D01*
X57457228Y5126371D01*
X57502287Y5188390D01*
X57595220Y5370781D01*
X57658477Y5565466D01*
X57690500Y5767648D01*
X57690500Y5972352D01*
X57664178Y6138543D01*
X57658477Y6174535D01*
X57619987Y6292993D01*
X57595220Y6369219D01*
X57595218Y6369222D01*
X57595218Y6369224D01*
X57552249Y6453554D01*
X57502287Y6551610D01*
X57491887Y6565925D01*
X57381971Y6717214D01*
X57237213Y6861972D01*
X57071614Y6982285D01*
X57065006Y6985652D01*
X56978917Y7029517D01*
X56928123Y7077489D01*
X56911328Y7145310D01*
X56933865Y7211445D01*
X56978917Y7250484D01*
X57071610Y7297713D01*
X57092770Y7313087D01*
X57237213Y7418029D01*
X57237215Y7418032D01*
X57237219Y7418034D01*
X57381966Y7562781D01*
X57381968Y7562785D01*
X57381971Y7562787D01*
X57434732Y7635410D01*
X57502287Y7728390D01*
X57595220Y7910781D01*
X57658477Y8105466D01*
X57690500Y8307648D01*
X57690500Y8512352D01*
X57658477Y8714534D01*
X57595220Y8909219D01*
X57595218Y8909222D01*
X57595218Y8909224D01*
X57539213Y9019138D01*
X57502287Y9091610D01*
X57494556Y9102251D01*
X57381971Y9257214D01*
X57241320Y9397865D01*
X62649500Y9397865D01*
X62649500Y7602130D01*
X62649501Y7602124D01*
X62655908Y7542517D01*
X62706202Y7407672D01*
X62706206Y7407665D01*
X62792452Y7292456D01*
X62792455Y7292453D01*
X62907664Y7206207D01*
X62907671Y7206203D01*
X62917573Y7202510D01*
X63042517Y7155909D01*
X63102127Y7149500D01*
X63112685Y7149501D01*
X63179723Y7129821D01*
X63200372Y7113182D01*
X63870591Y6442963D01*
X63807007Y6425925D01*
X63692993Y6360099D01*
X63599901Y6267007D01*
X63534075Y6152993D01*
X63517037Y6089409D01*
X62884728Y6721718D01*
X62884727Y6721718D01*
X62845380Y6667561D01*
X62748904Y6478218D01*
X62683242Y6276131D01*
X62683242Y6276128D01*
X62650000Y6066247D01*
X62650000Y5853754D01*
X62683242Y5643873D01*
X62683242Y5643870D01*
X62748904Y5441783D01*
X62845375Y5252450D01*
X62884728Y5198284D01*
X63517036Y5830593D01*
X63534075Y5767007D01*
X63599901Y5652993D01*
X63692993Y5559901D01*
X63807007Y5494075D01*
X63870590Y5477038D01*
X63238282Y4844731D01*
X63238282Y4844730D01*
X63292452Y4805374D01*
X63292451Y4805374D01*
X63301495Y4800766D01*
X63352292Y4752792D01*
X63369087Y4684971D01*
X63346550Y4618836D01*
X63301499Y4579798D01*
X63292182Y4575051D01*
X63120213Y4450110D01*
X62969890Y4299787D01*
X62844951Y4127821D01*
X62748444Y3938415D01*
X62682753Y3736240D01*
X62656341Y3569478D01*
X62649500Y3526287D01*
X62649500Y3313713D01*
X62682754Y3103757D01*
X62723481Y2978412D01*
X62748444Y2901586D01*
X62844951Y2712180D01*
X62969890Y2540214D01*
X63120213Y2389891D01*
X63292179Y2264952D01*
X63292181Y2264951D01*
X63292184Y2264949D01*
X63481588Y2168443D01*
X63683757Y2102754D01*
X63893713Y2069500D01*
X63893714Y2069500D01*
X64106286Y2069500D01*
X64106287Y2069500D01*
X64316243Y2102754D01*
X64518412Y2168443D01*
X64707816Y2264949D01*
X64818159Y2345117D01*
X64879786Y2389891D01*
X64879788Y2389894D01*
X64879792Y2389896D01*
X65030104Y2540208D01*
X65030106Y2540212D01*
X65030109Y2540214D01*
X65155048Y2712180D01*
X65155047Y2712180D01*
X65155051Y2712184D01*
X65251557Y2901588D01*
X65317246Y3103757D01*
X65350500Y3313713D01*
X65350500Y3526287D01*
X65317246Y3736243D01*
X65251557Y3938412D01*
X65160003Y4118098D01*
X72499500Y4118098D01*
X72499500Y3881903D01*
X72536446Y3648632D01*
X72609433Y3424004D01*
X72716657Y3213567D01*
X72855483Y3022490D01*
X73022490Y2855483D01*
X73213567Y2716657D01*
X73222354Y2712180D01*
X73424003Y2609434D01*
X73424005Y2609434D01*
X73424008Y2609432D01*
X73544412Y2570311D01*
X73648631Y2536447D01*
X73881903Y2499500D01*
X73881908Y2499500D01*
X74118097Y2499500D01*
X74351368Y2536447D01*
X74362943Y2540208D01*
X74575992Y2609432D01*
X74786433Y2716657D01*
X74977510Y2855483D01*
X75144517Y3022490D01*
X75283343Y3213567D01*
X75390568Y3424008D01*
X75463553Y3648632D01*
X75477429Y3736243D01*
X75500500Y3881903D01*
X75500500Y4118098D01*
X75463553Y4351369D01*
X75392677Y4569500D01*
X75390568Y4575992D01*
X75390566Y4575995D01*
X75390566Y4575997D01*
X75316380Y4721594D01*
X75283343Y4786433D01*
X75144517Y4977510D01*
X74977510Y5144517D01*
X74786433Y5283343D01*
X74747426Y5303218D01*
X74575996Y5390567D01*
X74351368Y5463554D01*
X74118097Y5500500D01*
X74118092Y5500500D01*
X73881908Y5500500D01*
X73881903Y5500500D01*
X73648631Y5463554D01*
X73424003Y5390567D01*
X73213566Y5283343D01*
X73104550Y5204138D01*
X73022490Y5144517D01*
X73022488Y5144515D01*
X73022487Y5144515D01*
X72855485Y4977513D01*
X72855485Y4977512D01*
X72855483Y4977510D01*
X72849121Y4968753D01*
X72716657Y4786434D01*
X72609433Y4575997D01*
X72536446Y4351369D01*
X72499500Y4118098D01*
X65160003Y4118098D01*
X65155051Y4127816D01*
X65147023Y4138866D01*
X65030109Y4299787D01*
X64879786Y4450110D01*
X64707817Y4575051D01*
X64698504Y4579796D01*
X64647707Y4627770D01*
X64630912Y4695591D01*
X64653449Y4761726D01*
X64698507Y4800768D01*
X64707555Y4805378D01*
X64761716Y4844730D01*
X64761717Y4844730D01*
X64129408Y5477038D01*
X64192993Y5494075D01*
X64307007Y5559901D01*
X64400099Y5652993D01*
X64465925Y5767007D01*
X64482962Y5830592D01*
X65115270Y5198283D01*
X65115270Y5198284D01*
X65154622Y5252446D01*
X65251095Y5441783D01*
X65316757Y5643870D01*
X65316757Y5643873D01*
X65350000Y5853754D01*
X65350000Y6066247D01*
X65316757Y6276128D01*
X65316757Y6276131D01*
X65251095Y6478218D01*
X65154624Y6667551D01*
X65115270Y6721718D01*
X65115269Y6721718D01*
X64482962Y6089410D01*
X64465925Y6152993D01*
X64400099Y6267007D01*
X64307007Y6360099D01*
X64192993Y6425925D01*
X64129409Y6442963D01*
X64799627Y7113182D01*
X64860950Y7146667D01*
X64887307Y7149501D01*
X64897872Y7149501D01*
X64957483Y7155909D01*
X65092331Y7206204D01*
X65207546Y7292454D01*
X65293796Y7407669D01*
X65344091Y7542517D01*
X65350500Y7602127D01*
X65350499Y9397872D01*
X65344091Y9457483D01*
X65310897Y9546480D01*
X65293797Y9592329D01*
X65293793Y9592336D01*
X65207547Y9707545D01*
X65207544Y9707548D01*
X65092335Y9793794D01*
X65092328Y9793798D01*
X64957482Y9844092D01*
X64957483Y9844092D01*
X64897883Y9850499D01*
X64897881Y9850500D01*
X64897873Y9850500D01*
X64897864Y9850500D01*
X63102129Y9850500D01*
X63102123Y9850499D01*
X63042516Y9844092D01*
X62907671Y9793798D01*
X62907664Y9793794D01*
X62792455Y9707548D01*
X62792452Y9707545D01*
X62706206Y9592336D01*
X62706202Y9592329D01*
X62655908Y9457483D01*
X62649940Y9401966D01*
X62649501Y9397877D01*
X62649500Y9397865D01*
X57241320Y9397865D01*
X57237213Y9401972D01*
X57071611Y9522287D01*
X56978369Y9569797D01*
X56927574Y9617771D01*
X56910779Y9685593D01*
X56933317Y9751727D01*
X56978371Y9790766D01*
X57071346Y9838139D01*
X57071347Y9838139D01*
X57115921Y9870526D01*
X56519409Y10467038D01*
X56582993Y10484075D01*
X56697007Y10549901D01*
X56790099Y10642993D01*
X56855925Y10757007D01*
X56872962Y10820590D01*
X57469474Y10224078D01*
X57469474Y10224079D01*
X57501859Y10268651D01*
X57594755Y10450969D01*
X57657990Y10645583D01*
X57690000Y10847683D01*
X57690000Y11052318D01*
X57657990Y11254418D01*
X57594755Y11449032D01*
X57501859Y11631350D01*
X57469474Y11675923D01*
X57469474Y11675924D01*
X56872962Y11079411D01*
X56855925Y11142993D01*
X56790099Y11257007D01*
X56697007Y11350099D01*
X56582993Y11415925D01*
X56519408Y11432963D01*
X57115922Y12029476D01*
X57115921Y12029477D01*
X57071359Y12061853D01*
X57071350Y12061859D01*
X56978369Y12109235D01*
X56927573Y12157210D01*
X56910778Y12225031D01*
X56933315Y12291165D01*
X56978370Y12330205D01*
X57071610Y12377713D01*
X57121144Y12413702D01*
X57237213Y12498029D01*
X57237215Y12498032D01*
X57237219Y12498034D01*
X57381966Y12642781D01*
X57381968Y12642785D01*
X57381971Y12642787D01*
X57434732Y12715410D01*
X57502287Y12808390D01*
X57595220Y12990781D01*
X57658477Y13185466D01*
X57690500Y13387648D01*
X57690500Y13592352D01*
X57658477Y13794534D01*
X57595220Y13989219D01*
X57595218Y13989222D01*
X57595218Y13989224D01*
X57529778Y14117655D01*
X57502287Y14171610D01*
X57489717Y14188911D01*
X57381971Y14337214D01*
X57237213Y14481972D01*
X57071614Y14602285D01*
X57065006Y14605652D01*
X56978917Y14649517D01*
X56928123Y14697489D01*
X56911328Y14765310D01*
X56933865Y14831445D01*
X56978917Y14870484D01*
X57071610Y14917713D01*
X57092770Y14933087D01*
X57237213Y15038029D01*
X57237215Y15038032D01*
X57237219Y15038034D01*
X57381966Y15182781D01*
X57381968Y15182785D01*
X57381971Y15182787D01*
X57489315Y15330536D01*
X57502287Y15348390D01*
X57595220Y15530781D01*
X57658477Y15725466D01*
X57690500Y15927648D01*
X57690500Y16132352D01*
X57658477Y16334535D01*
X57629127Y16424863D01*
X57595220Y16529219D01*
X57595218Y16529222D01*
X57595218Y16529224D01*
X57557097Y16604039D01*
X57502287Y16711610D01*
X57455995Y16775326D01*
X57381971Y16877214D01*
X57237213Y17021972D01*
X57071614Y17142285D01*
X57027920Y17164548D01*
X56978917Y17189517D01*
X56928123Y17237489D01*
X56911328Y17305310D01*
X56933865Y17371445D01*
X56978917Y17410484D01*
X57071610Y17457713D01*
X57092770Y17473087D01*
X57237213Y17578029D01*
X57237215Y17578032D01*
X57237219Y17578034D01*
X57381966Y17722781D01*
X57381968Y17722785D01*
X57381971Y17722787D01*
X57434732Y17795410D01*
X57502287Y17888390D01*
X57595220Y18070781D01*
X57658477Y18265466D01*
X57690500Y18467648D01*
X57690500Y18672352D01*
X57658477Y18874534D01*
X57642358Y18924142D01*
X57595218Y19069224D01*
X57561503Y19135393D01*
X57502287Y19251610D01*
X57494556Y19262251D01*
X57381971Y19417214D01*
X57237213Y19561972D01*
X57071614Y19682285D01*
X57065006Y19685652D01*
X56978917Y19729517D01*
X56928123Y19777489D01*
X56911328Y19845310D01*
X56933865Y19911445D01*
X56978917Y19950484D01*
X57071610Y19997713D01*
X57092770Y20013087D01*
X57237213Y20118029D01*
X57237215Y20118032D01*
X57237219Y20118034D01*
X57381966Y20262781D01*
X57381968Y20262785D01*
X57381971Y20262787D01*
X57441282Y20344423D01*
X57502287Y20428390D01*
X57595220Y20610781D01*
X57658477Y20805466D01*
X57690500Y21007648D01*
X57690500Y21212352D01*
X57658477Y21414534D01*
X57657318Y21418100D01*
X57629127Y21504863D01*
X57595220Y21609219D01*
X57595218Y21609222D01*
X57595218Y21609224D01*
X57561503Y21675393D01*
X57502287Y21791610D01*
X57485355Y21814915D01*
X57381971Y21957214D01*
X57237213Y22101972D01*
X57071611Y22222287D01*
X56978369Y22269797D01*
X56927574Y22317771D01*
X56910779Y22385593D01*
X56933317Y22451727D01*
X56978371Y22490766D01*
X57071346Y22538139D01*
X57071347Y22538139D01*
X57115921Y22570526D01*
X56519409Y23167038D01*
X56582993Y23184075D01*
X56697007Y23249901D01*
X56790099Y23342993D01*
X56855925Y23457007D01*
X56872962Y23520590D01*
X57469474Y22924078D01*
X57469474Y22924079D01*
X57501859Y22968651D01*
X57594755Y23150969D01*
X57657990Y23345583D01*
X57690000Y23547683D01*
X57690000Y23752318D01*
X57657990Y23954418D01*
X57594755Y24149032D01*
X57501859Y24331350D01*
X57469474Y24375923D01*
X57469474Y24375924D01*
X56872962Y23779411D01*
X56855925Y23842993D01*
X56790099Y23957007D01*
X56697007Y24050099D01*
X56582993Y24115925D01*
X56519408Y24132963D01*
X57115922Y24729476D01*
X57115921Y24729477D01*
X57071359Y24761853D01*
X57071350Y24761859D01*
X56978369Y24809235D01*
X56927573Y24857210D01*
X56910778Y24925031D01*
X56933315Y24991165D01*
X56978370Y25030205D01*
X57053165Y25068315D01*
X57071610Y25077713D01*
X57121144Y25113702D01*
X57237213Y25198029D01*
X57237215Y25198032D01*
X57237219Y25198034D01*
X57381966Y25342781D01*
X57381968Y25342785D01*
X57381971Y25342787D01*
X57434732Y25415410D01*
X57502287Y25508390D01*
X57595220Y25690781D01*
X57658477Y25885466D01*
X57690500Y26087648D01*
X57690500Y26292352D01*
X57658477Y26494534D01*
X57595220Y26689219D01*
X57595218Y26689222D01*
X57595218Y26689224D01*
X57561503Y26755393D01*
X57502287Y26871610D01*
X57494556Y26882251D01*
X57381971Y27037214D01*
X57237213Y27181972D01*
X57071614Y27302285D01*
X57065006Y27305652D01*
X56978917Y27349517D01*
X56928123Y27397489D01*
X56911328Y27465310D01*
X56933865Y27531445D01*
X56978917Y27570484D01*
X57071610Y27617713D01*
X57092770Y27633087D01*
X57237213Y27738029D01*
X57237215Y27738032D01*
X57237219Y27738034D01*
X57381966Y27882781D01*
X57381968Y27882785D01*
X57381971Y27882787D01*
X57434732Y27955410D01*
X57502287Y28048390D01*
X57595220Y28230781D01*
X57658477Y28425466D01*
X57690500Y28627648D01*
X57690500Y28832352D01*
X57658477Y29034534D01*
X57595220Y29229219D01*
X57595218Y29229222D01*
X57595218Y29229224D01*
X57554441Y29309252D01*
X57502287Y29411610D01*
X57494556Y29422251D01*
X57381971Y29577214D01*
X57237213Y29721972D01*
X57071614Y29842285D01*
X57007407Y29875000D01*
X56978917Y29889517D01*
X56928123Y29937489D01*
X56911328Y30005310D01*
X56933865Y30071445D01*
X56978917Y30110484D01*
X57071610Y30157713D01*
X57105048Y30182007D01*
X57237213Y30278029D01*
X57237215Y30278032D01*
X57237219Y30278034D01*
X57381966Y30422781D01*
X57381968Y30422785D01*
X57381971Y30422787D01*
X57472387Y30547236D01*
X57502287Y30588390D01*
X57595220Y30770781D01*
X57658477Y30965466D01*
X57690500Y31167648D01*
X57690500Y31372352D01*
X57658477Y31574534D01*
X57655885Y31582510D01*
X57595218Y31769224D01*
X57561503Y31835393D01*
X57502287Y31951610D01*
X57494556Y31962251D01*
X57381971Y32117214D01*
X57237213Y32261972D01*
X57071614Y32382285D01*
X57045272Y32395707D01*
X56978917Y32429517D01*
X56928123Y32477489D01*
X56911328Y32545310D01*
X56933865Y32611445D01*
X56978917Y32650484D01*
X57071610Y32697713D01*
X57125131Y32736598D01*
X57237213Y32818029D01*
X57237215Y32818032D01*
X57237219Y32818034D01*
X57381966Y32962781D01*
X57381968Y32962785D01*
X57381971Y32962787D01*
X57456304Y33065099D01*
X57502287Y33128390D01*
X57595220Y33310781D01*
X57658477Y33505466D01*
X57690500Y33707648D01*
X57690500Y33912352D01*
X57658477Y34114534D01*
X57595220Y34309219D01*
X57595218Y34309222D01*
X57595218Y34309224D01*
X57561503Y34375393D01*
X57502287Y34491610D01*
X57486345Y34513553D01*
X57381971Y34657214D01*
X57237213Y34801972D01*
X57071611Y34922287D01*
X56978369Y34969797D01*
X56927574Y35017771D01*
X56910779Y35085593D01*
X56933317Y35151727D01*
X56978371Y35190766D01*
X57071346Y35238139D01*
X57071347Y35238139D01*
X57115921Y35270526D01*
X56519409Y35867038D01*
X56582993Y35884075D01*
X56697007Y35949901D01*
X56790099Y36042993D01*
X56855925Y36157007D01*
X56872962Y36220590D01*
X57469474Y35624078D01*
X57469474Y35624079D01*
X57501859Y35668651D01*
X57594755Y35850969D01*
X57657990Y36045583D01*
X57690000Y36247683D01*
X57690000Y36452318D01*
X57657990Y36654418D01*
X57594755Y36849032D01*
X57501859Y37031350D01*
X57469474Y37075923D01*
X57469474Y37075924D01*
X56872962Y36479411D01*
X56855925Y36542993D01*
X56790099Y36657007D01*
X56697007Y36750099D01*
X56582993Y36815925D01*
X56519408Y36832963D01*
X57115922Y37429476D01*
X57115921Y37429477D01*
X57071359Y37461853D01*
X57071350Y37461859D01*
X56978369Y37509235D01*
X56927573Y37557210D01*
X56910778Y37625031D01*
X56933315Y37691165D01*
X56978370Y37730205D01*
X57007044Y37744815D01*
X57071610Y37777713D01*
X57132276Y37821789D01*
X57237213Y37898029D01*
X57237215Y37898032D01*
X57237219Y37898034D01*
X57381966Y38042781D01*
X57381968Y38042785D01*
X57381971Y38042787D01*
X57486188Y38186232D01*
X57502287Y38208390D01*
X57595220Y38390781D01*
X57658477Y38585466D01*
X57690500Y38787648D01*
X57690500Y38992352D01*
X57658477Y39194534D01*
X57647144Y39229412D01*
X57595218Y39389224D01*
X57561503Y39455393D01*
X57502287Y39571610D01*
X57476867Y39606598D01*
X57381971Y39737214D01*
X57237213Y39881972D01*
X57071614Y40002285D01*
X57007407Y40035000D01*
X56978917Y40049517D01*
X56928123Y40097489D01*
X56911328Y40165310D01*
X56933865Y40231445D01*
X56978917Y40270484D01*
X57071610Y40317713D01*
X57147697Y40372993D01*
X57237213Y40438029D01*
X57237215Y40438032D01*
X57237219Y40438034D01*
X57381966Y40582781D01*
X57381968Y40582785D01*
X57381971Y40582787D01*
X57434732Y40655410D01*
X57502287Y40748390D01*
X57565776Y40872993D01*
X57595218Y40930777D01*
X57595218Y40930778D01*
X57595220Y40930781D01*
X57658477Y41125466D01*
X57690500Y41327648D01*
X57690500Y41532352D01*
X57669717Y41663569D01*
X57658477Y41734535D01*
X57595218Y41929224D01*
X57529964Y42057290D01*
X57502287Y42111610D01*
X57494556Y42122251D01*
X57381971Y42277214D01*
X57237213Y42421972D01*
X57071614Y42542285D01*
X57065006Y42545652D01*
X56978917Y42589517D01*
X56928123Y42637489D01*
X56911328Y42705310D01*
X56933865Y42771445D01*
X56978917Y42810484D01*
X57071610Y42857713D01*
X57092770Y42873087D01*
X57237213Y42978029D01*
X57237215Y42978032D01*
X57237219Y42978034D01*
X57381966Y43122781D01*
X57381968Y43122785D01*
X57381971Y43122787D01*
X57502284Y43288386D01*
X57502285Y43288387D01*
X57502287Y43288390D01*
X57559164Y43400017D01*
X72124500Y43400017D01*
X72124500Y42599999D01*
X72124501Y42599981D01*
X72135000Y42497204D01*
X72135001Y42497201D01*
X72159930Y42421972D01*
X72190186Y42330666D01*
X72282288Y42181344D01*
X72406344Y42057288D01*
X72555666Y41965186D01*
X72644927Y41935608D01*
X72702372Y41895835D01*
X72729195Y41831319D01*
X72716880Y41762543D01*
X72674816Y41714801D01*
X72651281Y41699076D01*
X72525926Y41573721D01*
X72525923Y41573717D01*
X72427433Y41426317D01*
X72427428Y41426307D01*
X72359587Y41262524D01*
X72359584Y41262517D01*
X72357096Y41250000D01*
X73219670Y41250000D01*
X73199925Y41230255D01*
X73150556Y41144745D01*
X73125000Y41049370D01*
X73125000Y40950630D01*
X73150556Y40855255D01*
X73199925Y40769745D01*
X73219670Y40750000D01*
X72357096Y40750000D01*
X72359584Y40737484D01*
X72359587Y40737477D01*
X72427428Y40573694D01*
X72427433Y40573684D01*
X72525923Y40426284D01*
X72525926Y40426280D01*
X72651279Y40300927D01*
X72651283Y40300924D01*
X72798683Y40202434D01*
X72798692Y40202429D01*
X72962479Y40134587D01*
X72962487Y40134585D01*
X73136353Y40100001D01*
X73136357Y40100000D01*
X73250000Y40100000D01*
X73250000Y40719670D01*
X73269745Y40699925D01*
X73355255Y40650556D01*
X73450630Y40625000D01*
X73549370Y40625000D01*
X73644745Y40650556D01*
X73730255Y40699925D01*
X73750000Y40719670D01*
X73750000Y40100000D01*
X73863643Y40100000D01*
X73863646Y40100001D01*
X74037512Y40134585D01*
X74037520Y40134587D01*
X74201307Y40202429D01*
X74201316Y40202434D01*
X74348716Y40300924D01*
X74348720Y40300927D01*
X74474073Y40426280D01*
X74474076Y40426284D01*
X74572566Y40573684D01*
X74572571Y40573694D01*
X74640412Y40737477D01*
X74640415Y40737484D01*
X74642904Y40750000D01*
X73780330Y40750000D01*
X73800075Y40769745D01*
X73849444Y40855255D01*
X73875000Y40950630D01*
X73875000Y41049370D01*
X73849444Y41144745D01*
X73800075Y41230255D01*
X73780330Y41250000D01*
X74642904Y41250000D01*
X74640415Y41262517D01*
X74640412Y41262524D01*
X74572571Y41426307D01*
X74572566Y41426317D01*
X74474076Y41573717D01*
X74474073Y41573721D01*
X74348720Y41699074D01*
X74348716Y41699077D01*
X74325185Y41714800D01*
X74280380Y41768412D01*
X74271673Y41837737D01*
X74301828Y41900765D01*
X74355070Y41935607D01*
X74444334Y41965186D01*
X74593656Y42057288D01*
X74717712Y42181344D01*
X74809814Y42330666D01*
X74864999Y42497203D01*
X74875500Y42599991D01*
X74875499Y43400008D01*
X74868269Y43470781D01*
X74864999Y43502797D01*
X74864998Y43502800D01*
X74809814Y43669334D01*
X74717712Y43818656D01*
X74593656Y43942712D01*
X74444334Y44034814D01*
X74277797Y44089999D01*
X74277795Y44090000D01*
X74175010Y44100500D01*
X72824998Y44100500D01*
X72824981Y44100499D01*
X72722203Y44090000D01*
X72722200Y44089999D01*
X72555668Y44034815D01*
X72555663Y44034813D01*
X72406342Y43942711D01*
X72282289Y43818658D01*
X72190187Y43669337D01*
X72190186Y43669334D01*
X72135001Y43502797D01*
X72135001Y43502796D01*
X72135000Y43502796D01*
X72124500Y43400017D01*
X57559164Y43400017D01*
X57595220Y43470781D01*
X57658477Y43665466D01*
X57690500Y43867648D01*
X57690500Y44072352D01*
X57658477Y44274534D01*
X57595220Y44469219D01*
X57595218Y44469222D01*
X57595218Y44469224D01*
X57561503Y44535393D01*
X57502287Y44651610D01*
X57494556Y44662251D01*
X57381971Y44817214D01*
X57237213Y44961972D01*
X57071614Y45082285D01*
X57065006Y45085652D01*
X56978917Y45129517D01*
X56928123Y45177489D01*
X56911328Y45245310D01*
X56933865Y45311445D01*
X56978917Y45350484D01*
X57071610Y45397713D01*
X57092770Y45413087D01*
X57237213Y45518029D01*
X57237215Y45518032D01*
X57237219Y45518034D01*
X57381966Y45662781D01*
X57381968Y45662785D01*
X57381971Y45662787D01*
X57434732Y45735410D01*
X57502287Y45828390D01*
X57595220Y46010781D01*
X57658477Y46205466D01*
X57690500Y46407648D01*
X57690500Y46612352D01*
X57658477Y46814534D01*
X57658353Y46814915D01*
X57595218Y47009224D01*
X57561503Y47075393D01*
X57502287Y47191610D01*
X57494556Y47202251D01*
X57381971Y47357214D01*
X57237213Y47501972D01*
X57071611Y47622287D01*
X56978369Y47669797D01*
X56927574Y47717771D01*
X56910779Y47785593D01*
X56933317Y47851727D01*
X56978371Y47890766D01*
X57071346Y47938139D01*
X57071347Y47938139D01*
X57115921Y47970526D01*
X56519409Y48567038D01*
X56582993Y48584075D01*
X56697007Y48649901D01*
X56790099Y48742993D01*
X56855925Y48857007D01*
X56872962Y48920590D01*
X57469474Y48324078D01*
X57469474Y48324079D01*
X57501859Y48368651D01*
X57594755Y48550969D01*
X57657990Y48745583D01*
X57690000Y48947683D01*
X57690000Y49152318D01*
X57657990Y49354418D01*
X57594755Y49549032D01*
X57501859Y49731350D01*
X57469474Y49775923D01*
X57469474Y49775924D01*
X56872962Y49179411D01*
X56855925Y49242993D01*
X56790099Y49357007D01*
X56697007Y49450099D01*
X56582993Y49515925D01*
X56519408Y49532963D01*
X57115922Y50129476D01*
X57115921Y50129477D01*
X57071359Y50161853D01*
X57071350Y50161859D01*
X56978369Y50209235D01*
X56927573Y50257210D01*
X56910778Y50325031D01*
X56933315Y50391165D01*
X56978370Y50430205D01*
X57071610Y50477713D01*
X57121144Y50513702D01*
X57237213Y50598029D01*
X57237215Y50598032D01*
X57237219Y50598034D01*
X57381966Y50742781D01*
X57381968Y50742785D01*
X57381971Y50742787D01*
X57463850Y50855486D01*
X57502287Y50908390D01*
X57595220Y51090781D01*
X57658477Y51285466D01*
X57690500Y51487648D01*
X57690500Y51692352D01*
X57658477Y51894534D01*
X57658476Y51894538D01*
X57658476Y51894539D01*
X57596706Y52084646D01*
X57596705Y52084648D01*
X57595220Y52089219D01*
X57580505Y52118098D01*
X72499500Y52118098D01*
X72499500Y51881903D01*
X72536446Y51648632D01*
X72609433Y51424004D01*
X72716657Y51213567D01*
X72855483Y51022490D01*
X73022490Y50855483D01*
X73213567Y50716657D01*
X73312991Y50665998D01*
X73424003Y50609434D01*
X73424005Y50609434D01*
X73424008Y50609432D01*
X73464920Y50596139D01*
X73648631Y50536447D01*
X73881903Y50499500D01*
X73881908Y50499500D01*
X74118097Y50499500D01*
X74351368Y50536447D01*
X74575992Y50609432D01*
X74786433Y50716657D01*
X74977510Y50855483D01*
X75144517Y51022490D01*
X75283343Y51213567D01*
X75390568Y51424008D01*
X75463553Y51648632D01*
X75470478Y51692352D01*
X75500500Y51881903D01*
X75500500Y52118098D01*
X75463553Y52351369D01*
X75390566Y52575997D01*
X75333176Y52688631D01*
X75283343Y52786433D01*
X75144517Y52977510D01*
X74977510Y53144517D01*
X74786433Y53283343D01*
X74575996Y53390567D01*
X74351368Y53463554D01*
X74118097Y53500500D01*
X74118092Y53500500D01*
X73881908Y53500500D01*
X73881903Y53500500D01*
X73648631Y53463554D01*
X73424003Y53390567D01*
X73213566Y53283343D01*
X73104550Y53204138D01*
X73022490Y53144517D01*
X73022488Y53144515D01*
X73022487Y53144515D01*
X72855485Y52977513D01*
X72855485Y52977512D01*
X72855483Y52977510D01*
X72822015Y52931445D01*
X72716657Y52786434D01*
X72609433Y52575997D01*
X72536446Y52351369D01*
X72499500Y52118098D01*
X57580505Y52118098D01*
X57502287Y52271610D01*
X57494556Y52282251D01*
X57381971Y52437214D01*
X57237213Y52581972D01*
X57071614Y52702285D01*
X57065006Y52705652D01*
X56978917Y52749517D01*
X56928123Y52797489D01*
X56911328Y52865310D01*
X56933865Y52931445D01*
X56978917Y52970484D01*
X57071610Y53017713D01*
X57092770Y53033087D01*
X57237213Y53138029D01*
X57237215Y53138032D01*
X57237219Y53138034D01*
X57381966Y53282781D01*
X57381968Y53282785D01*
X57381971Y53282787D01*
X57460277Y53390568D01*
X57502287Y53448390D01*
X57595220Y53630781D01*
X57658477Y53825466D01*
X57690500Y54027648D01*
X57690500Y54232352D01*
X57658477Y54434534D01*
X57595220Y54629219D01*
X57595218Y54629222D01*
X57595218Y54629224D01*
X57537581Y54742341D01*
X57502287Y54811610D01*
X57494556Y54822251D01*
X57381971Y54977214D01*
X57237213Y55121972D01*
X57071613Y55242285D01*
X57071612Y55242286D01*
X57071610Y55242287D01*
X57027004Y55265015D01*
X56976208Y55312990D01*
X56959413Y55380811D01*
X56981951Y55446946D01*
X57036666Y55490397D01*
X57083299Y55499500D01*
X73934108Y55499500D01*
X73996949Y55499500D01*
X74003032Y55499352D01*
X74336929Y55482948D01*
X74349037Y55481755D01*
X74362116Y55479815D01*
X74676699Y55433151D01*
X74688617Y55430781D01*
X75009951Y55350291D01*
X75021588Y55346760D01*
X75092806Y55321278D01*
X75333467Y55235168D01*
X75344688Y55230521D01*
X75644163Y55088880D01*
X75654871Y55083156D01*
X75938988Y54912863D01*
X75949106Y54906103D01*
X76215170Y54708776D01*
X76224576Y54701056D01*
X76470013Y54478605D01*
X76478604Y54470014D01*
X76665755Y54263525D01*
X76701055Y54224577D01*
X76708775Y54215171D01*
X76906102Y53949107D01*
X76912862Y53938989D01*
X77041776Y53723908D01*
X77083148Y53654884D01*
X77088883Y53644156D01*
X77181473Y53448390D01*
X77230514Y53344703D01*
X77235170Y53333460D01*
X77346759Y53021589D01*
X77350292Y53009945D01*
X77430777Y52688631D01*
X77433151Y52676695D01*
X77481754Y52349038D01*
X77482947Y52336929D01*
X77499351Y52003034D01*
X77499500Y51996949D01*
X77499500Y4003052D01*
X77499351Y3996967D01*
X77482947Y3663072D01*
X77481754Y3650963D01*
X77433151Y3323306D01*
X77430777Y3311370D01*
X77350292Y2990056D01*
X77346759Y2978412D01*
X77235170Y2666541D01*
X77230514Y2655298D01*
X77088885Y2355849D01*
X77083148Y2345117D01*
X76912862Y2061012D01*
X76906102Y2050894D01*
X76708775Y1784830D01*
X76701055Y1775424D01*
X76478611Y1529994D01*
X76470006Y1521389D01*
X76224576Y1298945D01*
X76215170Y1291225D01*
X75949106Y1093898D01*
X75938988Y1087138D01*
X75654883Y916852D01*
X75644151Y911115D01*
X75344702Y769486D01*
X75333459Y764830D01*
X75021588Y653241D01*
X75009944Y649708D01*
X74688630Y569223D01*
X74676694Y566849D01*
X74349037Y518246D01*
X74336928Y517053D01*
X74021989Y501581D01*
X74003031Y500649D01*
X73996949Y500500D01*
X4003051Y500500D01*
X3996968Y500649D01*
X3976900Y501635D01*
X3663071Y517053D01*
X3650962Y518246D01*
X3323305Y566849D01*
X3311369Y569223D01*
X2990055Y649708D01*
X2978411Y653241D01*
X2666540Y764830D01*
X2655301Y769485D01*
X2355844Y911117D01*
X2345121Y916850D01*
X2061011Y1087138D01*
X2050893Y1093898D01*
X1784829Y1291225D01*
X1775423Y1298945D01*
X1736475Y1334245D01*
X1529986Y1521396D01*
X1521395Y1529987D01*
X1298944Y1775424D01*
X1291224Y1784830D01*
X1093897Y2050894D01*
X1087137Y2061012D01*
X916844Y2345129D01*
X911120Y2355837D01*
X769479Y2655312D01*
X764829Y2666541D01*
X748499Y2712180D01*
X653240Y2978412D01*
X649707Y2990056D01*
X569219Y3311383D01*
X566848Y3323306D01*
X551910Y3424008D01*
X518245Y3650963D01*
X517052Y3663073D01*
X513457Y3736243D01*
X500649Y3996968D01*
X500500Y4003052D01*
X500500Y4118098D01*
X18499500Y4118098D01*
X18499500Y3881903D01*
X18536446Y3648632D01*
X18609433Y3424004D01*
X18716657Y3213567D01*
X18855483Y3022490D01*
X19022490Y2855483D01*
X19213567Y2716657D01*
X19222354Y2712180D01*
X19424003Y2609434D01*
X19424005Y2609434D01*
X19424008Y2609432D01*
X19544412Y2570311D01*
X19648631Y2536447D01*
X19881903Y2499500D01*
X19881908Y2499500D01*
X20118097Y2499500D01*
X20351368Y2536447D01*
X20362943Y2540208D01*
X20575992Y2609432D01*
X20786433Y2716657D01*
X20977510Y2855483D01*
X21144517Y3022490D01*
X21283343Y3213567D01*
X21390568Y3424008D01*
X21463553Y3648632D01*
X21477429Y3736243D01*
X21500500Y3881903D01*
X21500500Y4118098D01*
X21463553Y4351369D01*
X21392677Y4569500D01*
X21390568Y4575992D01*
X21390566Y4575995D01*
X21390566Y4575997D01*
X21316380Y4721594D01*
X21283343Y4786433D01*
X21144517Y4977510D01*
X20977510Y5144517D01*
X20786433Y5283343D01*
X20747426Y5303218D01*
X20575996Y5390567D01*
X20351368Y5463554D01*
X20118097Y5500500D01*
X20118092Y5500500D01*
X19881908Y5500500D01*
X19881903Y5500500D01*
X19648631Y5463554D01*
X19424003Y5390567D01*
X19213566Y5283343D01*
X19104550Y5204138D01*
X19022490Y5144517D01*
X19022488Y5144515D01*
X19022487Y5144515D01*
X18855485Y4977513D01*
X18855485Y4977512D01*
X18855483Y4977510D01*
X18849121Y4968753D01*
X18716657Y4786434D01*
X18609433Y4575997D01*
X18536446Y4351369D01*
X18499500Y4118098D01*
X500500Y4118098D01*
X500500Y6036451D01*
X3399500Y6036451D01*
X3399500Y5813550D01*
X3399501Y5813534D01*
X3428594Y5592548D01*
X3428595Y5592543D01*
X3428596Y5592537D01*
X3486290Y5377220D01*
X3486293Y5377210D01*
X3571593Y5171278D01*
X3571595Y5171274D01*
X3683052Y4978226D01*
X3683057Y4978220D01*
X3683058Y4978218D01*
X3818751Y4801378D01*
X3818757Y4801371D01*
X3976370Y4643758D01*
X3976377Y4643752D01*
X4059724Y4579798D01*
X4153226Y4508052D01*
X4346274Y4396595D01*
X4552219Y4311290D01*
X4767537Y4253596D01*
X4988543Y4224500D01*
X4988550Y4224500D01*
X5611450Y4224500D01*
X5611457Y4224500D01*
X5832463Y4253596D01*
X6047781Y4311290D01*
X6253726Y4396595D01*
X6446774Y4508052D01*
X6623624Y4643753D01*
X6781247Y4801376D01*
X6916948Y4978226D01*
X7028405Y5171274D01*
X7113710Y5377219D01*
X7171404Y5592537D01*
X7200500Y5813543D01*
X7200500Y6036457D01*
X7171404Y6257463D01*
X7113710Y6472781D01*
X7028405Y6678726D01*
X7028403Y6678729D01*
X7028401Y6678734D01*
X7014094Y6703514D01*
X7014093Y6703515D01*
X6980643Y6761451D01*
X11099500Y6761451D01*
X11099500Y6138550D01*
X11099501Y6138534D01*
X11128594Y5917548D01*
X11128595Y5917543D01*
X11128596Y5917537D01*
X11186290Y5702220D01*
X11186293Y5702210D01*
X11271593Y5496278D01*
X11271595Y5496274D01*
X11383052Y5303226D01*
X11383057Y5303220D01*
X11383058Y5303218D01*
X11518751Y5126378D01*
X11518757Y5126371D01*
X11676370Y4968758D01*
X11676376Y4968753D01*
X11853226Y4833052D01*
X12046274Y4721595D01*
X12167077Y4671557D01*
X12234201Y4643753D01*
X12252219Y4636290D01*
X12467537Y4578596D01*
X12688543Y4549500D01*
X12688550Y4549500D01*
X12911450Y4549500D01*
X12911457Y4549500D01*
X13132463Y4578596D01*
X13347781Y4636290D01*
X13553726Y4721595D01*
X13746774Y4833052D01*
X13923624Y4968753D01*
X14081247Y5126376D01*
X14216948Y5303226D01*
X14328405Y5496274D01*
X14413710Y5702219D01*
X14471404Y5917537D01*
X14500500Y6138543D01*
X14500500Y6761457D01*
X14471404Y6982463D01*
X14413710Y7197781D01*
X14410202Y7206249D01*
X14343207Y7367991D01*
X14328405Y7403726D01*
X14216948Y7596774D01*
X14177867Y7647706D01*
X14081248Y7773623D01*
X14081242Y7773630D01*
X13923629Y7931243D01*
X13923622Y7931249D01*
X13746782Y8066942D01*
X13746780Y8066943D01*
X13746774Y8066948D01*
X13553726Y8178405D01*
X13553722Y8178407D01*
X13347790Y8263707D01*
X13347783Y8263709D01*
X13347781Y8263710D01*
X13132463Y8321404D01*
X13132457Y8321405D01*
X13132452Y8321406D01*
X12911466Y8350499D01*
X12911463Y8350500D01*
X12911457Y8350500D01*
X12688543Y8350500D01*
X12688537Y8350500D01*
X12688533Y8350499D01*
X12467547Y8321406D01*
X12467540Y8321405D01*
X12467537Y8321404D01*
X12416199Y8307648D01*
X12252219Y8263710D01*
X12252209Y8263707D01*
X12046277Y8178407D01*
X12046273Y8178405D01*
X11853226Y8066948D01*
X11853217Y8066942D01*
X11676377Y7931249D01*
X11676370Y7931243D01*
X11518757Y7773630D01*
X11518751Y7773623D01*
X11383058Y7596783D01*
X11383052Y7596774D01*
X11271595Y7403727D01*
X11271593Y7403723D01*
X11186293Y7197791D01*
X11186290Y7197781D01*
X11141204Y7029515D01*
X11128597Y6982466D01*
X11128594Y6982453D01*
X11099501Y6761467D01*
X11099500Y6761451D01*
X6980643Y6761451D01*
X6980634Y6761467D01*
X6916948Y6871774D01*
X6859057Y6947219D01*
X6781248Y7048623D01*
X6781242Y7048630D01*
X6623629Y7206243D01*
X6623622Y7206249D01*
X6446782Y7341942D01*
X6446780Y7341943D01*
X6446774Y7341948D01*
X6253726Y7453405D01*
X6253722Y7453407D01*
X6047790Y7538707D01*
X6047783Y7538709D01*
X6047781Y7538710D01*
X5832463Y7596404D01*
X5832457Y7596405D01*
X5832452Y7596406D01*
X5611466Y7625499D01*
X5611463Y7625500D01*
X5611457Y7625500D01*
X4988543Y7625500D01*
X4988537Y7625500D01*
X4988533Y7625499D01*
X4767547Y7596406D01*
X4767540Y7596405D01*
X4767537Y7596404D01*
X4642076Y7562787D01*
X4552219Y7538710D01*
X4552209Y7538707D01*
X4346277Y7453407D01*
X4346273Y7453405D01*
X4153226Y7341948D01*
X4153217Y7341942D01*
X3976377Y7206249D01*
X3976370Y7206243D01*
X3818757Y7048630D01*
X3818751Y7048623D01*
X3683058Y6871783D01*
X3683052Y6871774D01*
X3571595Y6678727D01*
X3571593Y6678723D01*
X3486293Y6472791D01*
X3486290Y6472781D01*
X3443626Y6313554D01*
X3428597Y6257466D01*
X3428594Y6257453D01*
X3399501Y6036467D01*
X3399500Y6036451D01*
X500500Y6036451D01*
X500500Y8826159D01*
X520185Y8893198D01*
X572989Y8938953D01*
X642147Y8948897D01*
X699988Y8924534D01*
X753511Y8883463D01*
X946479Y8772055D01*
X946497Y8772046D01*
X1152373Y8686768D01*
X1152386Y8686763D01*
X1300000Y8647211D01*
X1300000Y9792894D01*
X1392993Y9699901D01*
X1507007Y9634075D01*
X1634174Y9600000D01*
X1765826Y9600000D01*
X1892993Y9634075D01*
X2007007Y9699901D01*
X2100000Y9792894D01*
X2100000Y8647212D01*
X2247613Y8686763D01*
X2247626Y8686768D01*
X2453502Y8772046D01*
X2453520Y8772055D01*
X2646491Y8883465D01*
X2646495Y8883467D01*
X2823293Y9019131D01*
X2823302Y9019138D01*
X2980862Y9176698D01*
X2980869Y9176707D01*
X3116533Y9353505D01*
X3116535Y9353509D01*
X3227945Y9546480D01*
X3227954Y9546498D01*
X3313236Y9752382D01*
X3370911Y9967633D01*
X3370913Y9967644D01*
X3388339Y10100000D01*
X2200000Y10100000D01*
X2200000Y10900000D01*
X3388339Y10900000D01*
X3370913Y11032363D01*
X3313236Y11247619D01*
X3227954Y11453503D01*
X3227945Y11453521D01*
X3116535Y11646492D01*
X3116533Y11646496D01*
X2980869Y11823294D01*
X2980862Y11823302D01*
X2823302Y11980862D01*
X2823293Y11980870D01*
X2646495Y12116534D01*
X2646491Y12116536D01*
X2453520Y12227946D01*
X2453502Y12227955D01*
X2247620Y12313236D01*
X2100000Y12352791D01*
X2100000Y11207106D01*
X2007007Y11300099D01*
X1892993Y11365925D01*
X1765826Y11400000D01*
X1634174Y11400000D01*
X1507007Y11365925D01*
X1392993Y11300099D01*
X1300000Y11207106D01*
X1300000Y12352791D01*
X1299999Y12352791D01*
X1152379Y12313236D01*
X946497Y12227955D01*
X946479Y12227946D01*
X753508Y12116536D01*
X753504Y12116534D01*
X699987Y12075467D01*
X634818Y12050272D01*
X566373Y12064310D01*
X516383Y12113124D01*
X500500Y12173842D01*
X500500Y13200962D01*
X6399500Y13200962D01*
X6399500Y12949039D01*
X6438910Y12700215D01*
X6516760Y12460617D01*
X6631132Y12236152D01*
X6779201Y12032351D01*
X6779205Y12032346D01*
X6957345Y11854206D01*
X6957350Y11854202D01*
X6999881Y11823302D01*
X7161155Y11706130D01*
X7304184Y11633253D01*
X7385616Y11591761D01*
X7385618Y11591761D01*
X7385621Y11591759D01*
X7625215Y11513910D01*
X7874038Y11474500D01*
X7874039Y11474500D01*
X8725961Y11474500D01*
X8725962Y11474500D01*
X8974785Y11513910D01*
X9214379Y11591759D01*
X9438845Y11706130D01*
X9642656Y11854207D01*
X9820793Y12032344D01*
X9968870Y12236155D01*
X10083241Y12460621D01*
X10161090Y12700215D01*
X10200500Y12949038D01*
X10200500Y13200962D01*
X10161090Y13449785D01*
X10083241Y13689379D01*
X10083239Y13689382D01*
X10083239Y13689384D01*
X9968869Y13913846D01*
X9940151Y13953373D01*
X9916671Y14019180D01*
X9932496Y14087234D01*
X9982602Y14135929D01*
X10021407Y14147116D01*
X10021150Y14148738D01*
X10025961Y14149500D01*
X10025962Y14149500D01*
X10274785Y14188910D01*
X10514379Y14266759D01*
X10738845Y14381130D01*
X10942656Y14529207D01*
X11120793Y14707344D01*
X11268870Y14911155D01*
X11383241Y15135621D01*
X11461090Y15375215D01*
X11500500Y15624038D01*
X11500500Y15875962D01*
X11461090Y16124785D01*
X11383241Y16364379D01*
X11383239Y16364382D01*
X11383239Y16364384D01*
X11336279Y16456547D01*
X11268870Y16588845D01*
X11249952Y16614883D01*
X11120798Y16792650D01*
X11120794Y16792655D01*
X10942654Y16970795D01*
X10942649Y16970799D01*
X10738848Y17118868D01*
X10738847Y17118869D01*
X10738845Y17118870D01*
X10649197Y17164548D01*
X10514383Y17233240D01*
X10274785Y17311090D01*
X10025962Y17350500D01*
X9174038Y17350500D01*
X9049626Y17330795D01*
X8925214Y17311090D01*
X8685616Y17233240D01*
X8461151Y17118868D01*
X8257350Y16970799D01*
X8257345Y16970795D01*
X8079205Y16792655D01*
X8079201Y16792650D01*
X7931132Y16588849D01*
X7816760Y16364384D01*
X7738910Y16124786D01*
X7737945Y16118694D01*
X7699500Y15875962D01*
X7699500Y15624038D01*
X7738910Y15375215D01*
X7816760Y15135617D01*
X7931132Y14911152D01*
X7959848Y14871627D01*
X7983328Y14805821D01*
X7967502Y14737767D01*
X7917397Y14689072D01*
X7878636Y14677611D01*
X7878850Y14676262D01*
X7874039Y14675500D01*
X7874038Y14675500D01*
X7754686Y14656597D01*
X7625214Y14636090D01*
X7385616Y14558240D01*
X7161151Y14443868D01*
X6957350Y14295799D01*
X6957345Y14295795D01*
X6779205Y14117655D01*
X6779201Y14117650D01*
X6631132Y13913849D01*
X6516760Y13689384D01*
X6438910Y13449786D01*
X6399500Y13200962D01*
X500500Y13200962D01*
X500500Y37951606D01*
X2874500Y37951606D01*
X2874500Y37949024D01*
X2874500Y19838389D01*
X2898535Y19717556D01*
X2898540Y19717539D01*
X2945685Y19603719D01*
X2945690Y19603710D01*
X2961243Y19580433D01*
X2961250Y19580425D01*
X2965209Y19574500D01*
X3014142Y19501267D01*
X3101267Y19414142D01*
X3101270Y19414140D01*
X3109177Y19406233D01*
X3811016Y18704394D01*
X3811045Y18704363D01*
X3901264Y18614144D01*
X3901267Y18614142D01*
X3978190Y18562744D01*
X4003715Y18545688D01*
X4070397Y18518068D01*
X4074185Y18516499D01*
X4074193Y18516495D01*
X4111427Y18501073D01*
X4117548Y18498537D01*
X4177971Y18486519D01*
X4238393Y18474500D01*
X4238394Y18474500D01*
X28639548Y18474500D01*
X28706587Y18454815D01*
X28727229Y18438181D01*
X31621263Y15544145D01*
X31621267Y15544142D01*
X31723710Y15475691D01*
X31723711Y15475691D01*
X31723715Y15475688D01*
X31790397Y15448068D01*
X31837548Y15428537D01*
X31857597Y15424549D01*
X31922624Y15411615D01*
X31958392Y15404499D01*
X31958394Y15404499D01*
X32087721Y15404499D01*
X32087741Y15404500D01*
X33850639Y15404500D01*
X33917678Y15384815D01*
X33938321Y15368180D01*
X33975961Y15330539D01*
X33975965Y15330536D01*
X34123446Y15231991D01*
X34123459Y15231984D01*
X34242234Y15182787D01*
X34287334Y15164106D01*
X34287336Y15164106D01*
X34287341Y15164104D01*
X34461304Y15129501D01*
X34461307Y15129500D01*
X34461309Y15129500D01*
X34638693Y15129500D01*
X34638694Y15129501D01*
X34696682Y15141036D01*
X34812658Y15164104D01*
X34812661Y15164106D01*
X34812666Y15164106D01*
X34976547Y15231987D01*
X35124035Y15330536D01*
X35249464Y15455965D01*
X35348013Y15603453D01*
X35356540Y15624038D01*
X35357958Y15627465D01*
X35415894Y15767334D01*
X35450500Y15941309D01*
X35450500Y16118691D01*
X35450500Y16118694D01*
X35450499Y16118696D01*
X35415896Y16292659D01*
X35415893Y16292668D01*
X35348016Y16456541D01*
X35348009Y16456554D01*
X35249464Y16604035D01*
X35249461Y16604039D01*
X35124038Y16729462D01*
X35124034Y16729465D01*
X34976553Y16828010D01*
X34976540Y16828017D01*
X34812667Y16895894D01*
X34812658Y16895897D01*
X34638694Y16930500D01*
X34638691Y16930500D01*
X34461309Y16930500D01*
X34461306Y16930500D01*
X34287341Y16895897D01*
X34287332Y16895894D01*
X34123459Y16828017D01*
X34123448Y16828011D01*
X34044600Y16775326D01*
X33977923Y16754449D01*
X33910543Y16772934D01*
X33863853Y16824913D01*
X33852677Y16893883D01*
X33861148Y16925879D01*
X33865894Y16937334D01*
X33872550Y16970793D01*
X33900499Y17111305D01*
X33900500Y17111307D01*
X33900500Y17288694D01*
X33900499Y17288696D01*
X33865896Y17462659D01*
X33865893Y17462668D01*
X33798016Y17626541D01*
X33798009Y17626554D01*
X33699464Y17774035D01*
X33699461Y17774039D01*
X33574038Y17899462D01*
X33574034Y17899465D01*
X33426553Y17998010D01*
X33426540Y17998017D01*
X33262667Y18065894D01*
X33262658Y18065897D01*
X33088694Y18100500D01*
X33088691Y18100500D01*
X33035452Y18100500D01*
X32968413Y18120185D01*
X32947771Y18136819D01*
X30993150Y20091440D01*
X30985860Y20098730D01*
X30985858Y20098733D01*
X30898733Y20185858D01*
X30847509Y20220085D01*
X30796286Y20254312D01*
X30796283Y20254314D01*
X30796280Y20254315D01*
X30722603Y20284832D01*
X30722601Y20284833D01*
X30715792Y20287653D01*
X30682452Y20301463D01*
X30622029Y20313482D01*
X30617306Y20314422D01*
X30617304Y20314422D01*
X30561610Y20325500D01*
X30561607Y20325500D01*
X30561606Y20325500D01*
X4910452Y20325500D01*
X4881011Y20334145D01*
X4851025Y20340668D01*
X4846009Y20344423D01*
X4843413Y20345185D01*
X4822771Y20361819D01*
X4761819Y20422771D01*
X4728334Y20484094D01*
X4725500Y20510452D01*
X4725500Y23485777D01*
X8659500Y23485777D01*
X8659500Y23184224D01*
X8659501Y23184207D01*
X8698861Y22885234D01*
X8776913Y22593940D01*
X8892314Y22315339D01*
X8892318Y22315329D01*
X9043099Y22054169D01*
X9226679Y21814922D01*
X9226685Y21814915D01*
X9439914Y21601686D01*
X9439921Y21601680D01*
X9679168Y21418100D01*
X9940328Y21267319D01*
X9940329Y21267319D01*
X9940332Y21267317D01*
X10126072Y21190381D01*
X10218939Y21151914D01*
X10218940Y21151914D01*
X10218942Y21151913D01*
X10510232Y21073862D01*
X10809217Y21034500D01*
X10809224Y21034500D01*
X11110776Y21034500D01*
X11110783Y21034500D01*
X11409768Y21073862D01*
X11701058Y21151913D01*
X11979668Y21267317D01*
X12240832Y21418100D01*
X12480080Y21601681D01*
X12693319Y21814920D01*
X12876900Y22054168D01*
X13027683Y22315332D01*
X13143087Y22593942D01*
X13221138Y22885232D01*
X13260500Y23184217D01*
X13260500Y23485783D01*
X13221138Y23784768D01*
X13143087Y24076058D01*
X13027683Y24354668D01*
X13015411Y24375923D01*
X12876900Y24615832D01*
X12693320Y24855079D01*
X12693314Y24855086D01*
X12480085Y25068315D01*
X12480078Y25068321D01*
X12240831Y25251901D01*
X11979671Y25402682D01*
X11979661Y25402686D01*
X11701060Y25518087D01*
X11409766Y25596139D01*
X11110793Y25635499D01*
X11110788Y25635500D01*
X11110783Y25635500D01*
X10809217Y25635500D01*
X10809211Y25635500D01*
X10809206Y25635499D01*
X10510233Y25596139D01*
X10218939Y25518087D01*
X9940338Y25402686D01*
X9940328Y25402682D01*
X9679168Y25251901D01*
X9439921Y25068321D01*
X9439914Y25068315D01*
X9226685Y24855086D01*
X9226679Y24855079D01*
X9043099Y24615832D01*
X8892318Y24354672D01*
X8892314Y24354662D01*
X8776913Y24076061D01*
X8698861Y23784767D01*
X8659501Y23485794D01*
X8659500Y23485777D01*
X4725500Y23485777D01*
X4725500Y35289548D01*
X4734144Y35318989D01*
X4740668Y35348975D01*
X4744422Y35353991D01*
X4745185Y35356587D01*
X4761819Y35377229D01*
X4822771Y35438181D01*
X4884094Y35471666D01*
X4910452Y35474500D01*
X7450978Y35474500D01*
X7518017Y35454815D01*
X7551295Y35423387D01*
X7570867Y35396448D01*
X7580586Y35383072D01*
X7703072Y35260586D01*
X7843212Y35158768D01*
X7874567Y35142792D01*
X7997550Y35080129D01*
X7997552Y35080129D01*
X7997555Y35080127D01*
X8019704Y35072931D01*
X8077378Y35033492D01*
X8104576Y34969134D01*
X8092661Y34900287D01*
X8045416Y34848812D01*
X8019705Y34837071D01*
X8011334Y34834351D01*
X7997550Y34829872D01*
X7843211Y34751232D01*
X7763256Y34693141D01*
X7703072Y34649414D01*
X7703070Y34649412D01*
X7703069Y34649412D01*
X7580588Y34526931D01*
X7580588Y34526930D01*
X7580586Y34526928D01*
X7570865Y34513548D01*
X7478768Y34386789D01*
X7400128Y34232448D01*
X7346597Y34067698D01*
X7346597Y34067697D01*
X7319500Y33896611D01*
X7319500Y33723389D01*
X7346598Y33552299D01*
X7400127Y33387555D01*
X7478768Y33233212D01*
X7580586Y33093072D01*
X7703072Y32970586D01*
X7843212Y32868768D01*
X7916133Y32831613D01*
X7997550Y32790129D01*
X7997552Y32790129D01*
X7997555Y32790127D01*
X8019704Y32782931D01*
X8077378Y32743492D01*
X8104576Y32679134D01*
X8092661Y32610287D01*
X8045416Y32558812D01*
X8019705Y32547071D01*
X8011334Y32544351D01*
X7997550Y32539872D01*
X7843211Y32461232D01*
X7799557Y32429515D01*
X7703072Y32359414D01*
X7703070Y32359412D01*
X7703069Y32359412D01*
X7580588Y32236931D01*
X7580588Y32236930D01*
X7580586Y32236928D01*
X7570865Y32223548D01*
X7478768Y32096789D01*
X7400128Y31942448D01*
X7346597Y31777698D01*
X7333169Y31692915D01*
X7319500Y31606611D01*
X7319500Y31433389D01*
X7346598Y31262299D01*
X7400127Y31097555D01*
X7478768Y30943212D01*
X7580586Y30803072D01*
X7703072Y30680586D01*
X7843212Y30578768D01*
X7997555Y30500127D01*
X8162299Y30446598D01*
X8333389Y30419500D01*
X8333390Y30419500D01*
X8506610Y30419500D01*
X8506611Y30419500D01*
X8677701Y30446598D01*
X8842445Y30500127D01*
X8996788Y30578768D01*
X9136928Y30680586D01*
X9259414Y30803072D01*
X9361232Y30943212D01*
X9439873Y31097555D01*
X9493402Y31262299D01*
X9520500Y31433389D01*
X9520500Y31606611D01*
X9493402Y31777701D01*
X9439873Y31942445D01*
X9361232Y32096788D01*
X9259414Y32236928D01*
X9136928Y32359414D01*
X8996788Y32461232D01*
X8842445Y32539873D01*
X8820295Y32547070D01*
X8800853Y32560364D01*
X8779242Y32569732D01*
X8772547Y32579719D01*
X8762621Y32586506D01*
X8753450Y32608206D01*
X8740337Y32627768D01*
X8740104Y32639788D01*
X8735423Y32650865D01*
X8739440Y32674077D01*
X8738984Y32697624D01*
X8745287Y32707864D01*
X8747338Y32719711D01*
X8763263Y32737064D01*
X8775613Y32757123D01*
X8788511Y32764573D01*
X8794582Y32771187D01*
X8804929Y32776776D01*
X8812402Y32780366D01*
X8842445Y32790127D01*
X8996788Y32868768D01*
X9136928Y32970586D01*
X9259414Y33093072D01*
X9361232Y33233212D01*
X9439873Y33387555D01*
X9493402Y33552299D01*
X9520500Y33723389D01*
X9520500Y33896611D01*
X9493402Y34067701D01*
X9439873Y34232445D01*
X9361232Y34386788D01*
X9259414Y34526928D01*
X9136928Y34649414D01*
X8996788Y34751232D01*
X8842445Y34829873D01*
X8820295Y34837070D01*
X8800853Y34850364D01*
X8779242Y34859732D01*
X8772547Y34869719D01*
X8762621Y34876506D01*
X8753450Y34898206D01*
X8740337Y34917768D01*
X8740104Y34929788D01*
X8735423Y34940865D01*
X8739440Y34964077D01*
X8738984Y34987624D01*
X8745287Y34997864D01*
X8747338Y35009711D01*
X8763263Y35027064D01*
X8775613Y35047123D01*
X8788511Y35054573D01*
X8794582Y35061187D01*
X8804929Y35066776D01*
X8812402Y35070366D01*
X8842445Y35080127D01*
X8996788Y35158768D01*
X9136928Y35260586D01*
X9259414Y35383072D01*
X9361232Y35523212D01*
X9439873Y35677555D01*
X9493402Y35842299D01*
X9520500Y36013389D01*
X9520500Y36186611D01*
X9493402Y36357701D01*
X9439873Y36522445D01*
X9361232Y36676788D01*
X9259414Y36816928D01*
X9136928Y36939414D01*
X8996788Y37041232D01*
X8842447Y37119872D01*
X8842446Y37119873D01*
X8842445Y37119873D01*
X8820295Y37127070D01*
X8800804Y37140398D01*
X8779152Y37149808D01*
X8772499Y37159752D01*
X8762621Y37166506D01*
X8753429Y37188258D01*
X8740301Y37207880D01*
X8740080Y37219844D01*
X8735423Y37230865D01*
X8739449Y37254131D01*
X8739015Y37277738D01*
X8745297Y37287922D01*
X8747338Y37299711D01*
X8763300Y37317104D01*
X8775700Y37337202D01*
X8788551Y37344617D01*
X8794582Y37351187D01*
X8805035Y37356827D01*
X8812457Y37360384D01*
X8842445Y37370127D01*
X8996788Y37448768D01*
X9136928Y37550586D01*
X9259414Y37673072D01*
X9361232Y37813212D01*
X9439873Y37967555D01*
X9493402Y38132299D01*
X9520500Y38303389D01*
X9520500Y38476611D01*
X9493402Y38647701D01*
X9439873Y38812445D01*
X9361232Y38966788D01*
X9259414Y39106928D01*
X9136928Y39229414D01*
X8996788Y39331232D01*
X8842445Y39409873D01*
X8820295Y39417070D01*
X8800853Y39430364D01*
X8779242Y39439732D01*
X8772547Y39449719D01*
X8762621Y39456506D01*
X8753450Y39478206D01*
X8740337Y39497768D01*
X8740104Y39509788D01*
X8735423Y39520865D01*
X8739440Y39544077D01*
X8738984Y39567624D01*
X8745287Y39577864D01*
X8747338Y39589711D01*
X8763263Y39607064D01*
X8774618Y39625507D01*
X9810000Y39625507D01*
X9810000Y39444494D01*
X9838317Y39265707D01*
X9894251Y39093556D01*
X9894252Y39093553D01*
X9976431Y38932270D01*
X9987913Y38916468D01*
X9987913Y38916467D01*
X10477037Y39405591D01*
X10494075Y39342007D01*
X10559901Y39227993D01*
X10652993Y39134901D01*
X10767007Y39069075D01*
X10830590Y39052038D01*
X10341466Y38562915D01*
X10341466Y38562914D01*
X10357267Y38551434D01*
X10357275Y38551429D01*
X10511773Y38472708D01*
X10562569Y38424733D01*
X10579364Y38356913D01*
X10556827Y38290778D01*
X10511774Y38251739D01*
X10383213Y38186234D01*
X10285174Y38115004D01*
X10243072Y38084414D01*
X10243070Y38084412D01*
X10243069Y38084412D01*
X10120588Y37961931D01*
X10120588Y37961930D01*
X10120586Y37961928D01*
X10113087Y37951606D01*
X10018768Y37821789D01*
X9940128Y37667448D01*
X9886597Y37502698D01*
X9861560Y37344617D01*
X9859500Y37331611D01*
X9859500Y37158389D01*
X9886598Y36987299D01*
X9940127Y36822555D01*
X10018768Y36668212D01*
X10120586Y36528072D01*
X10243072Y36405586D01*
X10383212Y36303768D01*
X10421668Y36284174D01*
X10511773Y36238263D01*
X10562569Y36190288D01*
X10579364Y36122467D01*
X10556827Y36056333D01*
X10511774Y36017294D01*
X10357269Y35938568D01*
X10341466Y35927088D01*
X10341466Y35927087D01*
X10830591Y35437963D01*
X10767007Y35420925D01*
X10652993Y35355099D01*
X10559901Y35262007D01*
X10494075Y35147993D01*
X10477037Y35084410D01*
X9987912Y35573534D01*
X9976432Y35557731D01*
X9894254Y35396453D01*
X9894251Y35396445D01*
X9838317Y35224294D01*
X9810000Y35045507D01*
X9810000Y34864494D01*
X9838317Y34685707D01*
X9894251Y34513556D01*
X9894252Y34513553D01*
X9976431Y34352270D01*
X9987913Y34336468D01*
X9987913Y34336467D01*
X10477037Y34825591D01*
X10494075Y34762007D01*
X10559901Y34647993D01*
X10652993Y34554901D01*
X10767007Y34489075D01*
X10830590Y34472038D01*
X10341466Y33982915D01*
X10341466Y33982914D01*
X10357267Y33971434D01*
X10357275Y33971429D01*
X10457257Y33920485D01*
X10508053Y33872510D01*
X10524848Y33804689D01*
X10502311Y33738554D01*
X10457258Y33699516D01*
X10357269Y33648568D01*
X10341466Y33637088D01*
X10341466Y33637087D01*
X10830591Y33147963D01*
X10767007Y33130925D01*
X10652993Y33065099D01*
X10559901Y32972007D01*
X10494075Y32857993D01*
X10477037Y32794410D01*
X9987912Y33283534D01*
X9976432Y33267731D01*
X9894254Y33106453D01*
X9894251Y33106445D01*
X9838317Y32934294D01*
X9810000Y32755507D01*
X9810000Y32574494D01*
X9838317Y32395707D01*
X9894251Y32223556D01*
X9894252Y32223553D01*
X9976431Y32062270D01*
X9987913Y32046468D01*
X9987913Y32046467D01*
X10477037Y32535591D01*
X10494075Y32472007D01*
X10559901Y32357993D01*
X10652993Y32264901D01*
X10767007Y32199075D01*
X10830590Y32182038D01*
X10341466Y31692915D01*
X10341466Y31692914D01*
X10357267Y31681434D01*
X10357275Y31681429D01*
X10457257Y31630485D01*
X10508053Y31582510D01*
X10524848Y31514689D01*
X10502311Y31448554D01*
X10457258Y31409516D01*
X10357269Y31358568D01*
X10341466Y31347088D01*
X10341466Y31347087D01*
X10830591Y30857963D01*
X10767007Y30840925D01*
X10652993Y30775099D01*
X10559901Y30682007D01*
X10494075Y30567993D01*
X10477037Y30504410D01*
X9987912Y30993534D01*
X9976432Y30977731D01*
X9894254Y30816453D01*
X9894251Y30816445D01*
X9838317Y30644294D01*
X9810000Y30465507D01*
X9810000Y30284494D01*
X9838317Y30105707D01*
X9894251Y29933556D01*
X9894252Y29933553D01*
X9976431Y29772270D01*
X9987913Y29756468D01*
X9987913Y29756467D01*
X10477037Y30245591D01*
X10494075Y30182007D01*
X10559901Y30067993D01*
X10652993Y29974901D01*
X10767007Y29909075D01*
X10830590Y29892038D01*
X10341466Y29402915D01*
X10341466Y29402914D01*
X10357267Y29391434D01*
X10357275Y29391429D01*
X10518552Y29309253D01*
X10518555Y29309252D01*
X10690706Y29253318D01*
X10869494Y29225000D01*
X11050506Y29225000D01*
X11229293Y29253318D01*
X11401444Y29309252D01*
X11401452Y29309255D01*
X11562730Y29391432D01*
X11578532Y29402915D01*
X11578533Y29402915D01*
X11089410Y29892038D01*
X11152993Y29909075D01*
X11267007Y29974901D01*
X11360099Y30067993D01*
X11425925Y30182007D01*
X11442962Y30245591D01*
X11932085Y29756468D01*
X11943568Y29772270D01*
X12025745Y29933548D01*
X12025748Y29933556D01*
X12081682Y30105707D01*
X12110000Y30284494D01*
X12110000Y30465507D01*
X12081682Y30644294D01*
X12025748Y30816445D01*
X12025747Y30816448D01*
X11943571Y30977725D01*
X11943566Y30977733D01*
X11932085Y30993534D01*
X11442962Y30504411D01*
X11425925Y30567993D01*
X11360099Y30682007D01*
X11267007Y30775099D01*
X11152993Y30840925D01*
X11089409Y30857963D01*
X11578533Y31347087D01*
X11562727Y31358571D01*
X11462741Y31409517D01*
X11411946Y31457492D01*
X11395151Y31525313D01*
X11417689Y31591447D01*
X11462742Y31630486D01*
X11562732Y31681434D01*
X11578532Y31692915D01*
X11578533Y31692915D01*
X11089410Y32182038D01*
X11152993Y32199075D01*
X11267007Y32264901D01*
X11360099Y32357993D01*
X11425925Y32472007D01*
X11442962Y32535591D01*
X11932085Y32046468D01*
X11943568Y32062270D01*
X12025745Y32223548D01*
X12025748Y32223556D01*
X12081682Y32395707D01*
X12110000Y32574494D01*
X12110000Y32755507D01*
X12081682Y32934294D01*
X12025748Y33106445D01*
X12025747Y33106448D01*
X11943571Y33267725D01*
X11943566Y33267733D01*
X11932085Y33283534D01*
X11442962Y32794411D01*
X11425925Y32857993D01*
X11360099Y32972007D01*
X11267007Y33065099D01*
X11152993Y33130925D01*
X11089409Y33147963D01*
X11578533Y33637087D01*
X11562727Y33648571D01*
X11462741Y33699517D01*
X11411946Y33747492D01*
X11395151Y33815313D01*
X11417689Y33881447D01*
X11462742Y33920486D01*
X11562732Y33971434D01*
X11578532Y33982915D01*
X11578533Y33982915D01*
X11089410Y34472038D01*
X11152993Y34489075D01*
X11267007Y34554901D01*
X11360099Y34647993D01*
X11425925Y34762007D01*
X11442962Y34825591D01*
X11932085Y34336468D01*
X11943568Y34352270D01*
X12025745Y34513548D01*
X12025748Y34513556D01*
X12081682Y34685707D01*
X12110000Y34864494D01*
X12110000Y35045507D01*
X12081682Y35224294D01*
X12025748Y35396445D01*
X12025747Y35396448D01*
X11943571Y35557725D01*
X11943566Y35557733D01*
X11932085Y35573534D01*
X11442962Y35084411D01*
X11425925Y35147993D01*
X11360099Y35262007D01*
X11267007Y35355099D01*
X11152993Y35420925D01*
X11089409Y35437963D01*
X11578533Y35927087D01*
X11562730Y35938569D01*
X11408226Y36017293D01*
X11357430Y36065268D01*
X11340635Y36133089D01*
X11363173Y36199224D01*
X11408226Y36238263D01*
X11426714Y36247683D01*
X11536788Y36303768D01*
X11676928Y36405586D01*
X11799414Y36528072D01*
X11901232Y36668212D01*
X11979873Y36822555D01*
X12033402Y36987299D01*
X12060500Y37158389D01*
X12060500Y37331611D01*
X12033402Y37502701D01*
X11979873Y37667445D01*
X11901232Y37821788D01*
X11799414Y37961928D01*
X11676928Y38084414D01*
X11536788Y38186232D01*
X11536670Y38186292D01*
X11408226Y38251738D01*
X11400843Y38258711D01*
X11391291Y38262156D01*
X11375871Y38282296D01*
X11357430Y38299713D01*
X11354988Y38309571D01*
X11348816Y38317633D01*
X11346732Y38342913D01*
X11340635Y38367534D01*
X11343910Y38377145D01*
X11343076Y38387266D01*
X11354991Y38409661D01*
X11363173Y38433669D01*
X11371999Y38441627D01*
X11375895Y38448949D01*
X11398743Y38465740D01*
X11403918Y38470405D01*
X11575130Y38566318D01*
X11089410Y39052038D01*
X11152993Y39069075D01*
X11267007Y39134901D01*
X11360099Y39227993D01*
X11425925Y39342007D01*
X11442962Y39405591D01*
X11932085Y38916468D01*
X11943568Y38932270D01*
X12025745Y39093548D01*
X12025748Y39093556D01*
X12081682Y39265707D01*
X12110000Y39444494D01*
X12110000Y39625507D01*
X12081682Y39804294D01*
X12025748Y39976445D01*
X12025747Y39976448D01*
X11943571Y40137725D01*
X11943566Y40137733D01*
X11932085Y40153534D01*
X11442962Y39664411D01*
X11425925Y39727993D01*
X11360099Y39842007D01*
X11267007Y39935099D01*
X11152993Y40000925D01*
X11089409Y40017963D01*
X11578533Y40507087D01*
X11562730Y40518569D01*
X11401447Y40600748D01*
X11401444Y40600749D01*
X11229293Y40656683D01*
X11050506Y40685000D01*
X10869494Y40685000D01*
X10690706Y40656683D01*
X10518555Y40600749D01*
X10518547Y40600746D01*
X10357269Y40518568D01*
X10341466Y40507088D01*
X10341466Y40507087D01*
X10830591Y40017963D01*
X10767007Y40000925D01*
X10652993Y39935099D01*
X10559901Y39842007D01*
X10494075Y39727993D01*
X10477037Y39664410D01*
X9987912Y40153534D01*
X9976432Y40137731D01*
X9894254Y39976453D01*
X9894251Y39976445D01*
X9838317Y39804294D01*
X9810000Y39625507D01*
X8774618Y39625507D01*
X8775613Y39627123D01*
X8788511Y39634573D01*
X8794582Y39641187D01*
X8804929Y39646776D01*
X8812402Y39650366D01*
X8842445Y39660127D01*
X8996788Y39738768D01*
X9136928Y39840586D01*
X9259414Y39963072D01*
X9361232Y40103212D01*
X9439873Y40257555D01*
X9493402Y40422299D01*
X9520500Y40593389D01*
X9520500Y40766611D01*
X9519883Y40770507D01*
X12350000Y40770507D01*
X12350000Y40589494D01*
X12378317Y40410707D01*
X12434251Y40238556D01*
X12434252Y40238553D01*
X12516431Y40077270D01*
X12527913Y40061468D01*
X12527913Y40061467D01*
X13017037Y40550591D01*
X13034075Y40487007D01*
X13099901Y40372993D01*
X13192993Y40279901D01*
X13307007Y40214075D01*
X13370590Y40197038D01*
X12881466Y39707915D01*
X12881466Y39707914D01*
X12897267Y39696434D01*
X12897275Y39696429D01*
X13051773Y39617708D01*
X13102569Y39569733D01*
X13119364Y39501913D01*
X13096827Y39435778D01*
X13051774Y39396739D01*
X12923213Y39331234D01*
X12833025Y39265707D01*
X12783072Y39229414D01*
X12783070Y39229412D01*
X12783069Y39229412D01*
X12660588Y39106931D01*
X12660588Y39106930D01*
X12660586Y39106928D01*
X12616859Y39046744D01*
X12558768Y38966789D01*
X12480128Y38812448D01*
X12426597Y38647698D01*
X12416741Y38585466D01*
X12399500Y38476611D01*
X12399500Y38303389D01*
X12401821Y38288736D01*
X12418055Y38186234D01*
X12426598Y38132299D01*
X12480127Y37967555D01*
X12558768Y37813212D01*
X12660586Y37673072D01*
X12783072Y37550586D01*
X12923212Y37448768D01*
X12961075Y37429476D01*
X13077550Y37370129D01*
X13077552Y37370129D01*
X13077555Y37370127D01*
X13099704Y37362931D01*
X13157378Y37323492D01*
X13184576Y37259134D01*
X13172661Y37190287D01*
X13125416Y37138812D01*
X13099705Y37127071D01*
X13091334Y37124351D01*
X13077550Y37119872D01*
X12923211Y37041232D01*
X12848985Y36987303D01*
X12783072Y36939414D01*
X12783070Y36939412D01*
X12783069Y36939412D01*
X12660588Y36816931D01*
X12660588Y36816930D01*
X12660586Y36816928D01*
X12623637Y36766072D01*
X12558768Y36676789D01*
X12480128Y36522448D01*
X12426597Y36357698D01*
X12399500Y36186611D01*
X12399500Y36013390D01*
X12425224Y35850969D01*
X12426598Y35842299D01*
X12480127Y35677555D01*
X12558768Y35523212D01*
X12660586Y35383072D01*
X12783072Y35260586D01*
X12923212Y35158768D01*
X12954567Y35142792D01*
X13077550Y35080129D01*
X13077552Y35080129D01*
X13077555Y35080127D01*
X13099704Y35072931D01*
X13157378Y35033492D01*
X13184576Y34969134D01*
X13172661Y34900287D01*
X13125416Y34848812D01*
X13099705Y34837071D01*
X13091334Y34834351D01*
X13077550Y34829872D01*
X12923211Y34751232D01*
X12843256Y34693141D01*
X12783072Y34649414D01*
X12783070Y34649412D01*
X12783069Y34649412D01*
X12660588Y34526931D01*
X12660588Y34526930D01*
X12660586Y34526928D01*
X12650865Y34513548D01*
X12558768Y34386789D01*
X12480128Y34232448D01*
X12426597Y34067698D01*
X12426597Y34067697D01*
X12399500Y33896611D01*
X12399500Y33723389D01*
X12426598Y33552299D01*
X12480127Y33387555D01*
X12558768Y33233212D01*
X12660586Y33093072D01*
X12783072Y32970586D01*
X12923212Y32868768D01*
X12950263Y32854985D01*
X13001059Y32807012D01*
X13017855Y32739191D01*
X12995319Y32673056D01*
X12940604Y32629604D01*
X12893970Y32620500D01*
X12655143Y32620500D01*
X12655117Y32620498D01*
X12630012Y32617587D01*
X12630008Y32617585D01*
X12527235Y32572207D01*
X12447794Y32492766D01*
X12402415Y32389994D01*
X12402415Y32389992D01*
X12399500Y32364869D01*
X12399500Y30675144D01*
X12399502Y30675118D01*
X12402413Y30650013D01*
X12402415Y30650009D01*
X12447793Y30547236D01*
X12447794Y30547235D01*
X12527235Y30467794D01*
X12630009Y30422415D01*
X12655135Y30419500D01*
X14344864Y30419501D01*
X14344879Y30419503D01*
X14344882Y30419503D01*
X14369987Y30422414D01*
X14369988Y30422415D01*
X14369991Y30422415D01*
X14472765Y30467794D01*
X14552206Y30547235D01*
X14597585Y30650009D01*
X14600500Y30675135D01*
X14600499Y32364864D01*
X14598479Y32382285D01*
X14597586Y32389988D01*
X14597585Y32389990D01*
X14597585Y32389991D01*
X14552206Y32492765D01*
X14472765Y32572206D01*
X14455750Y32579719D01*
X14369992Y32617585D01*
X14344868Y32620500D01*
X14106031Y32620500D01*
X14038992Y32640185D01*
X13993237Y32692989D01*
X13983293Y32762147D01*
X14012318Y32825703D01*
X14049736Y32854985D01*
X14076788Y32868768D01*
X14216928Y32970586D01*
X14339414Y33093072D01*
X14441232Y33233212D01*
X14519873Y33387555D01*
X14573402Y33552299D01*
X14600500Y33723389D01*
X14600500Y33896611D01*
X14573402Y34067701D01*
X14519873Y34232445D01*
X14441232Y34386788D01*
X14339414Y34526928D01*
X14216928Y34649414D01*
X14076788Y34751232D01*
X13922445Y34829873D01*
X13900295Y34837070D01*
X13842621Y34876506D01*
X13815423Y34940865D01*
X13827338Y35009711D01*
X13874582Y35061187D01*
X13900294Y35072930D01*
X13922445Y35080127D01*
X14076788Y35158768D01*
X14216928Y35260586D01*
X14339414Y35383072D01*
X14441232Y35523212D01*
X14519873Y35677555D01*
X14573402Y35842299D01*
X14600500Y36013389D01*
X14600500Y36186611D01*
X14573402Y36357701D01*
X14519873Y36522445D01*
X14441232Y36676788D01*
X14339414Y36816928D01*
X14216928Y36939414D01*
X14076788Y37041232D01*
X13922447Y37119872D01*
X13922446Y37119873D01*
X13922445Y37119873D01*
X13900295Y37127070D01*
X13842621Y37166506D01*
X13815423Y37230865D01*
X13827338Y37299711D01*
X13874582Y37351187D01*
X13900294Y37362930D01*
X13922445Y37370127D01*
X14076788Y37448768D01*
X14216928Y37550586D01*
X14339414Y37673072D01*
X14441232Y37813212D01*
X14519873Y37967555D01*
X14573402Y38132299D01*
X14600500Y38303389D01*
X14600500Y38476611D01*
X14573402Y38647701D01*
X14519873Y38812445D01*
X14441232Y38966788D01*
X14339414Y39106928D01*
X14216928Y39229414D01*
X14076788Y39331232D01*
X14055641Y39342007D01*
X13948226Y39396738D01*
X13897430Y39444713D01*
X13880635Y39512534D01*
X13903173Y39578669D01*
X13948226Y39617708D01*
X14102732Y39696434D01*
X14118532Y39707915D01*
X14118533Y39707915D01*
X13629410Y40197038D01*
X13692993Y40214075D01*
X13807007Y40279901D01*
X13900099Y40372993D01*
X13965925Y40487007D01*
X13982962Y40550590D01*
X14472085Y40061467D01*
X14472085Y40061468D01*
X14483568Y40077270D01*
X14565745Y40238548D01*
X14565748Y40238556D01*
X14621682Y40410707D01*
X14650000Y40589494D01*
X14650000Y40770507D01*
X14621682Y40949294D01*
X14565748Y41121445D01*
X14565747Y41121448D01*
X14483571Y41282725D01*
X14483566Y41282733D01*
X14472085Y41298534D01*
X13982962Y40809411D01*
X13965925Y40872993D01*
X13900099Y40987007D01*
X13807007Y41080099D01*
X13692993Y41145925D01*
X13629409Y41162963D01*
X14118533Y41652087D01*
X14102730Y41663569D01*
X13941447Y41745748D01*
X13941444Y41745749D01*
X13769293Y41801683D01*
X13590506Y41830000D01*
X13409494Y41830000D01*
X13230706Y41801683D01*
X13058555Y41745749D01*
X13058547Y41745746D01*
X12897269Y41663568D01*
X12881466Y41652088D01*
X12881466Y41652087D01*
X13370591Y41162963D01*
X13307007Y41145925D01*
X13192993Y41080099D01*
X13099901Y40987007D01*
X13034075Y40872993D01*
X13017037Y40809410D01*
X12527912Y41298534D01*
X12516432Y41282731D01*
X12434254Y41121453D01*
X12434251Y41121445D01*
X12378317Y40949294D01*
X12350000Y40770507D01*
X9519883Y40770507D01*
X9493402Y40937701D01*
X9439873Y41102445D01*
X9361232Y41256788D01*
X9259414Y41396928D01*
X9136928Y41519414D01*
X8996788Y41621232D01*
X8842445Y41699873D01*
X8677701Y41753402D01*
X8677699Y41753403D01*
X8677698Y41753403D01*
X8546271Y41774219D01*
X8506611Y41780500D01*
X8333389Y41780500D01*
X8293728Y41774219D01*
X8162302Y41753403D01*
X7997552Y41699872D01*
X7843211Y41621232D01*
X7777819Y41573721D01*
X7703072Y41519414D01*
X7703070Y41519412D01*
X7703069Y41519412D01*
X7580588Y41396931D01*
X7580588Y41396930D01*
X7580586Y41396928D01*
X7546087Y41349444D01*
X7478768Y41256789D01*
X7400128Y41102448D01*
X7346597Y40937698D01*
X7319500Y40766611D01*
X7319500Y40593390D01*
X7345966Y40426284D01*
X7346598Y40422299D01*
X7400127Y40257555D01*
X7478768Y40103212D01*
X7580586Y39963072D01*
X7703072Y39840586D01*
X7843212Y39738768D01*
X7903765Y39707915D01*
X7997550Y39660129D01*
X7997552Y39660129D01*
X7997555Y39660127D01*
X8019704Y39652931D01*
X8077378Y39613492D01*
X8104576Y39549134D01*
X8092661Y39480287D01*
X8045416Y39428812D01*
X8019705Y39417071D01*
X8011334Y39414351D01*
X7997550Y39409872D01*
X7843211Y39331232D01*
X7763256Y39273141D01*
X7703072Y39229414D01*
X7703070Y39229412D01*
X7703069Y39229412D01*
X7580585Y39106928D01*
X7551295Y39066613D01*
X7495965Y39023948D01*
X7450978Y39015500D01*
X3938389Y39015500D01*
X3887535Y39005385D01*
X3887530Y39005384D01*
X3877971Y39003482D01*
X3817548Y38991463D01*
X3770397Y38971933D01*
X3703715Y38944312D01*
X3703714Y38944311D01*
X3681347Y38929367D01*
X3681344Y38929365D01*
X3601268Y38875860D01*
X3557705Y38832297D01*
X3514142Y38788733D01*
X3014144Y38288736D01*
X3014138Y38288728D01*
X2945690Y38186292D01*
X2945688Y38186287D01*
X2898540Y38072462D01*
X2898538Y38072455D01*
X2898537Y38072452D01*
X2898537Y38072451D01*
X2875055Y37954394D01*
X2874500Y37951606D01*
X500500Y37951606D01*
X500500Y48485777D01*
X8659500Y48485777D01*
X8659500Y48184224D01*
X8659501Y48184207D01*
X8698861Y47885234D01*
X8776913Y47593940D01*
X8892314Y47315339D01*
X8892318Y47315329D01*
X9043099Y47054169D01*
X9226679Y46814922D01*
X9226685Y46814915D01*
X9439914Y46601686D01*
X9439921Y46601680D01*
X9679168Y46418100D01*
X9940328Y46267319D01*
X9940329Y46267319D01*
X9940332Y46267317D01*
X10089654Y46205466D01*
X10218939Y46151914D01*
X10218940Y46151914D01*
X10218942Y46151913D01*
X10510232Y46073862D01*
X10809217Y46034500D01*
X10809224Y46034500D01*
X11110776Y46034500D01*
X11110783Y46034500D01*
X11409768Y46073862D01*
X11701058Y46151913D01*
X11979668Y46267317D01*
X12240832Y46418100D01*
X12480080Y46601681D01*
X12490751Y46612352D01*
X12583305Y46704905D01*
X12693314Y46814915D01*
X12693319Y46814920D01*
X12876900Y47054168D01*
X13027683Y47315332D01*
X13143087Y47593942D01*
X13221138Y47885232D01*
X13260500Y48184217D01*
X13260500Y48485783D01*
X13221138Y48784768D01*
X13143087Y49076058D01*
X13027683Y49354668D01*
X12876900Y49615832D01*
X12754058Y49775923D01*
X12693320Y49855079D01*
X12693314Y49855086D01*
X12480085Y50068315D01*
X12480078Y50068321D01*
X12240831Y50251901D01*
X11979671Y50402682D01*
X11979661Y50402686D01*
X11701060Y50518087D01*
X11409766Y50596139D01*
X11110793Y50635499D01*
X11110788Y50635500D01*
X11110783Y50635500D01*
X10809217Y50635500D01*
X10809211Y50635500D01*
X10809206Y50635499D01*
X10510233Y50596139D01*
X10218939Y50518087D01*
X9940338Y50402686D01*
X9940328Y50402682D01*
X9679168Y50251901D01*
X9439921Y50068321D01*
X9439914Y50068315D01*
X9226685Y49855086D01*
X9226679Y49855079D01*
X9043099Y49615832D01*
X8892318Y49354672D01*
X8892314Y49354662D01*
X8776913Y49076061D01*
X8698861Y48784767D01*
X8659501Y48485794D01*
X8659500Y48485777D01*
X500500Y48485777D01*
X500500Y51996949D01*
X500649Y52003034D01*
X506302Y52118098D01*
X18499500Y52118098D01*
X18499500Y51881903D01*
X18536446Y51648632D01*
X18609433Y51424004D01*
X18716657Y51213567D01*
X18855483Y51022490D01*
X19022490Y50855483D01*
X19213567Y50716657D01*
X19312991Y50665998D01*
X19424003Y50609434D01*
X19424005Y50609434D01*
X19424008Y50609432D01*
X19464920Y50596139D01*
X19648631Y50536447D01*
X19881903Y50499500D01*
X19881908Y50499500D01*
X20118097Y50499500D01*
X20351368Y50536447D01*
X20575992Y50609432D01*
X20786433Y50716657D01*
X20977510Y50855483D01*
X21144517Y51022490D01*
X21283343Y51213567D01*
X21390568Y51424008D01*
X21463553Y51648632D01*
X21470478Y51692352D01*
X21500500Y51881903D01*
X21500500Y52118098D01*
X21463553Y52351369D01*
X21390566Y52575997D01*
X21333176Y52688631D01*
X21283343Y52786433D01*
X21144517Y52977510D01*
X20977510Y53144517D01*
X20786433Y53283343D01*
X20575996Y53390567D01*
X20351368Y53463554D01*
X20118097Y53500500D01*
X20118092Y53500500D01*
X19881908Y53500500D01*
X19881903Y53500500D01*
X19648631Y53463554D01*
X19424003Y53390567D01*
X19213566Y53283343D01*
X19104550Y53204138D01*
X19022490Y53144517D01*
X19022488Y53144515D01*
X19022487Y53144515D01*
X18855485Y52977513D01*
X18855485Y52977512D01*
X18855483Y52977510D01*
X18822015Y52931445D01*
X18716657Y52786434D01*
X18609433Y52575997D01*
X18536446Y52351369D01*
X18499500Y52118098D01*
X506302Y52118098D01*
X506840Y52129049D01*
X506840Y52129050D01*
X513843Y52271610D01*
X517052Y52336932D01*
X518245Y52349038D01*
X531325Y52437219D01*
X566849Y52676704D01*
X569218Y52688615D01*
X649710Y53009957D01*
X653240Y53021589D01*
X697224Y53144515D01*
X764835Y53333475D01*
X769476Y53344682D01*
X911124Y53644172D01*
X916840Y53654864D01*
X1087145Y53939002D01*
X1093888Y53949095D01*
X1291232Y54215182D01*
X1298935Y54224567D01*
X1521405Y54470025D01*
X1529975Y54478595D01*
X1775433Y54701065D01*
X1784818Y54708768D01*
X2050905Y54906112D01*
X2060998Y54912855D01*
X2345136Y55083160D01*
X2355828Y55088876D01*
X2655318Y55230524D01*
X2666525Y55235165D01*
X2978412Y55346761D01*
X2990043Y55350290D01*
X3311385Y55430782D01*
X3323296Y55433151D01*
X3650962Y55481756D01*
X3663068Y55482948D01*
X3996967Y55499352D01*
X4003051Y55499500D01*
X4065892Y55499500D01*
X37916701Y55499500D01*
X37983740Y55479815D01*
G37*
%TD.AperFunction*%
%TD*%
M02*
