%TF.GenerationSoftware,KiCad,Pcbnew,9.0.4*%
%TF.CreationDate,2025-09-20T17:35:25+02:00*%
%TF.ProjectId,demoboard,64656d6f-626f-4617-9264-2e6b69636164,-*%
%TF.SameCoordinates,PX6422c40PY7cee6c0*%
%TF.FileFunction,Soldermask,Top*%
%TF.FilePolarity,Negative*%
%FSLAX46Y46*%
G04 Gerber Fmt 4.6, Leading zero omitted, Abs format (unit mm)*
G04 Created by KiCad (PCBNEW 9.0.4) date 2025-09-20 17:35:25*
%MOMM*%
%LPD*%
G01*
G04 APERTURE LIST*
G04 Aperture macros list*
%AMRoundRect*
0 Rectangle with rounded corners*
0 $1 Rounding radius*
0 $2 $3 $4 $5 $6 $7 $8 $9 X,Y pos of 4 corners*
0 Add a 4 corners polygon primitive as box body*
4,1,4,$2,$3,$4,$5,$6,$7,$8,$9,$2,$3,0*
0 Add four circle primitives for the rounded corners*
1,1,$1+$1,$2,$3*
1,1,$1+$1,$4,$5*
1,1,$1+$1,$6,$7*
1,1,$1+$1,$8,$9*
0 Add four rect primitives between the rounded corners*
20,1,$1+$1,$2,$3,$4,$5,0*
20,1,$1+$1,$4,$5,$6,$7,0*
20,1,$1+$1,$6,$7,$8,$9,0*
20,1,$1+$1,$8,$9,$2,$3,0*%
%AMHorizOval*
0 Thick line with rounded ends*
0 $1 width*
0 $2 $3 position (X,Y) of the first rounded end (center of the circle)*
0 $4 $5 position (X,Y) of the second rounded end (center of the circle)*
0 Add line between two ends*
20,1,$1,$2,$3,$4,$5,0*
0 Add two circle primitives to create the rounded ends*
1,1,$1,$2,$3*
1,1,$1,$4,$5*%
%AMFreePoly0*
4,1,37,0.800000,0.796148,0.878414,0.796148,1.032228,0.765552,1.177117,0.705537,1.307515,0.618408,1.418408,0.507515,1.505537,0.377117,1.565552,0.232228,1.596148,0.078414,1.596148,-0.078414,1.565552,-0.232228,1.505537,-0.377117,1.418408,-0.507515,1.307515,-0.618408,1.177117,-0.705537,1.032228,-0.765552,0.878414,-0.796148,0.800000,-0.796148,0.800000,-0.800000,-1.400000,-0.800000,
-1.403843,-0.796157,-1.439018,-0.796157,-1.511114,-0.766294,-1.566294,-0.711114,-1.596157,-0.639018,-1.596157,-0.603843,-1.600000,-0.600000,-1.600000,0.600000,-1.596157,0.603843,-1.596157,0.639018,-1.566294,0.711114,-1.511114,0.766294,-1.439018,0.796157,-1.403843,0.796157,-1.400000,0.800000,0.800000,0.800000,0.800000,0.796148,0.800000,0.796148,$1*%
%AMFreePoly1*
4,1,37,1.403843,0.796157,1.439018,0.796157,1.511114,0.766294,1.566294,0.711114,1.596157,0.639018,1.596157,0.603843,1.600000,0.600000,1.600000,-0.600000,1.596157,-0.603843,1.596157,-0.639018,1.566294,-0.711114,1.511114,-0.766294,1.439018,-0.796157,1.403843,-0.796157,1.400000,-0.800000,-0.800000,-0.800000,-0.800000,-0.796148,-0.878414,-0.796148,-1.032228,-0.765552,-1.177117,-0.705537,
-1.307515,-0.618408,-1.418408,-0.507515,-1.505537,-0.377117,-1.565552,-0.232228,-1.596148,-0.078414,-1.596148,0.078414,-1.565552,0.232228,-1.505537,0.377117,-1.418408,0.507515,-1.307515,0.618408,-1.177117,0.705537,-1.032228,0.765552,-0.878414,0.796148,-0.800000,0.796148,-0.800000,0.800000,1.400000,0.800000,1.403843,0.796157,1.403843,0.796157,$1*%
%AMFreePoly2*
4,1,37,1.600000,0.796148,1.678414,0.796148,1.832228,0.765552,1.977117,0.705537,2.107515,0.618408,2.218408,0.507515,2.305537,0.377117,2.365552,0.232228,2.396148,0.078414,2.396148,-0.078414,2.365552,-0.232228,2.305537,-0.377117,2.218408,-0.507515,2.107515,-0.618408,1.977117,-0.705537,1.832228,-0.765552,1.678414,-0.796148,1.600000,-0.796148,1.600000,-0.800000,-0.600000,-0.800000,
-0.603843,-0.796157,-0.639018,-0.796157,-0.711114,-0.766294,-0.766294,-0.711114,-0.796157,-0.639018,-0.796157,-0.603843,-0.800000,-0.600000,-0.800000,0.600000,-0.796157,0.603843,-0.796157,0.639018,-0.766294,0.711114,-0.711114,0.766294,-0.639018,0.796157,-0.603843,0.796157,-0.600000,0.800000,1.600000,0.800000,1.600000,0.796148,1.600000,0.796148,$1*%
G04 Aperture macros list end*
%ADD10RoundRect,0.250000X0.262500X0.450000X-0.262500X0.450000X-0.262500X-0.450000X0.262500X-0.450000X0*%
%ADD11R,1.100000X1.300000*%
%ADD12O,2.800000X2.400000*%
%ADD13O,2.800000X2.200000*%
%ADD14O,2.400000X2.800000*%
%ADD15RoundRect,0.250000X-0.250000X-0.475000X0.250000X-0.475000X0.250000X0.475000X-0.250000X0.475000X0*%
%ADD16RoundRect,0.250000X0.250000X0.475000X-0.250000X0.475000X-0.250000X-0.475000X0.250000X-0.475000X0*%
%ADD17R,1.400000X1.700000*%
%ADD18C,2.500000*%
%ADD19RoundRect,0.250000X-0.262500X-0.450000X0.262500X-0.450000X0.262500X0.450000X-0.262500X0.450000X0*%
%ADD20RoundRect,0.243750X-0.243750X-0.456250X0.243750X-0.456250X0.243750X0.456250X-0.243750X0.456250X0*%
%ADD21R,1.700000X1.700000*%
%ADD22HorizOval,1.700000X0.000000X0.000000X0.000000X0.000000X0*%
%ADD23O,1.700000X1.700000*%
%ADD24RoundRect,0.250000X-0.625000X0.350000X-0.625000X-0.350000X0.625000X-0.350000X0.625000X0.350000X0*%
%ADD25O,1.750000X1.200000*%
%ADD26RoundRect,0.250000X-1.050000X-0.550000X1.050000X-0.550000X1.050000X0.550000X-1.050000X0.550000X0*%
%ADD27C,4.000000*%
%ADD28R,1.600000X1.600000*%
%ADD29C,1.600000*%
%ADD30O,1.100000X1.800000*%
%ADD31O,1.050000X1.450000*%
%ADD32FreePoly0,0.000000*%
%ADD33RoundRect,0.800000X-0.800000X-0.000010X0.800000X-0.000010X0.800000X0.000010X-0.800000X0.000010X0*%
%ADD34FreePoly1,0.000000*%
%ADD35RoundRect,0.800000X0.000010X-0.800000X0.000010X0.800000X-0.000010X0.800000X-0.000010X-0.800000X0*%
%ADD36FreePoly2,270.000000*%
G04 APERTURE END LIST*
D10*
%TO.C,R8*%
X30912500Y31270000D03*
X29087500Y31270000D03*
%TD*%
%TO.C,R6*%
X30912500Y36350000D03*
X29087500Y36350000D03*
%TD*%
%TO.C,R7*%
X30912500Y33810000D03*
X29087500Y33810000D03*
%TD*%
D11*
%TO.C,D2*%
X61600000Y54200000D03*
X65000000Y54200000D03*
%TD*%
D12*
%TO.C,J4*%
X5300000Y5925000D03*
D13*
X9600000Y15750000D03*
D14*
X1700000Y10500000D03*
X12800000Y6450000D03*
D13*
X8300000Y13075000D03*
%TD*%
D10*
%TO.C,R11*%
X30912500Y21110000D03*
X29087500Y21110000D03*
%TD*%
D15*
%TO.C,C3*%
X29050000Y3330000D03*
X30950000Y3330000D03*
%TD*%
D10*
%TO.C,R2*%
X30912500Y49050000D03*
X29087500Y49050000D03*
%TD*%
D16*
%TO.C,C5*%
X22950000Y10950000D03*
X21050000Y10950000D03*
%TD*%
%TO.C,C4*%
X22950000Y8410000D03*
X21050000Y8410000D03*
%TD*%
D17*
%TO.C,SW1*%
X64250000Y28730000D03*
X64250000Y37430000D03*
X68750000Y28730000D03*
X68750000Y37430000D03*
%TD*%
D10*
%TO.C,R13*%
X30912500Y8410000D03*
X29087500Y8410000D03*
%TD*%
D18*
%TO.C,H2*%
X74000000Y52000000D03*
%TD*%
D19*
%TO.C,R15*%
X63200000Y48500000D03*
X65025000Y48500000D03*
%TD*%
D10*
%TO.C,R3*%
X30912500Y46510000D03*
X29087500Y46510000D03*
%TD*%
%TO.C,R5*%
X30912500Y38890000D03*
X29087500Y38890000D03*
%TD*%
D20*
%TO.C,D1*%
X63175000Y51000000D03*
X65050000Y51000000D03*
%TD*%
D10*
%TO.C,R4*%
X30912500Y43970000D03*
X29087500Y43970000D03*
%TD*%
D15*
%TO.C,C2*%
X29050000Y10950000D03*
X30950000Y10950000D03*
%TD*%
D10*
%TO.C,R12*%
X30912500Y18570000D03*
X29087500Y18570000D03*
%TD*%
D18*
%TO.C,H4*%
X74000000Y4000000D03*
%TD*%
%TO.C,H1*%
X20000000Y52000000D03*
%TD*%
%TO.C,H3*%
X20000000Y4000000D03*
%TD*%
D21*
%TO.C,J2*%
X64000000Y8500000D03*
D22*
X64000000Y5960000D03*
D23*
X64000000Y3420000D03*
%TD*%
D24*
%TO.C,J3*%
X73500000Y43000000D03*
D25*
X73500000Y41000000D03*
%TD*%
D10*
%TO.C,R9*%
X30912500Y26190000D03*
X29087500Y26190000D03*
%TD*%
D26*
%TO.C,C1*%
X63200000Y43970000D03*
X66800000Y43970000D03*
%TD*%
D27*
%TO.C,J1*%
X10960000Y48335000D03*
X10960000Y23335000D03*
D28*
X13500000Y31520000D03*
D29*
X13500000Y33810000D03*
X13500000Y36100000D03*
X13500000Y38390000D03*
X13500000Y40680000D03*
X10960000Y30375000D03*
X10960000Y32665000D03*
X10960000Y34955000D03*
X10960000Y37245000D03*
X10960000Y39535000D03*
X8420000Y31520000D03*
X8420000Y33810000D03*
X8420000Y36100000D03*
X8420000Y38390000D03*
X8420000Y40680000D03*
%TD*%
D10*
%TO.C,R14*%
X30912500Y5870000D03*
X29087500Y5870000D03*
%TD*%
D30*
%TO.C,U1*%
X44775000Y54000000D03*
D31*
X45075000Y50970000D03*
X49925000Y50970000D03*
D30*
X50225000Y54000000D03*
D32*
X37810000Y54130000D03*
D29*
X38610000Y54130000D03*
D33*
X37810000Y51590000D03*
D29*
X38610000Y51590000D03*
D34*
X37810000Y49050000D03*
D29*
X38610000Y49050000D03*
D33*
X37810000Y46510000D03*
D29*
X38610000Y46510000D03*
D33*
X37810000Y43970000D03*
D29*
X38610000Y43970000D03*
D33*
X37810000Y41430000D03*
D29*
X38610000Y41430000D03*
D33*
X37810000Y38890000D03*
D29*
X38610000Y38890000D03*
D34*
X37810000Y36350000D03*
D29*
X38610000Y36350000D03*
D33*
X37810000Y33810000D03*
D29*
X38610000Y33810000D03*
D33*
X37810000Y31270000D03*
D29*
X38610000Y31270000D03*
D33*
X37810000Y28730000D03*
D29*
X38610000Y28730000D03*
D33*
X37810000Y26190000D03*
D29*
X38610000Y26190000D03*
D34*
X37810000Y23650000D03*
D29*
X38610000Y23650000D03*
D33*
X37810000Y21110000D03*
D29*
X38610000Y21110000D03*
D33*
X37810000Y18570000D03*
D29*
X38610000Y18570000D03*
D33*
X37810000Y16030000D03*
D29*
X38610000Y16030000D03*
D33*
X37810000Y13490000D03*
D29*
X38610000Y13490000D03*
D34*
X37810000Y10950000D03*
D29*
X38610000Y10950000D03*
D33*
X37810000Y8410000D03*
D29*
X38610000Y8410000D03*
D33*
X37810000Y5870000D03*
D29*
X38610000Y5870000D03*
X56390000Y5870000D03*
D33*
X57190000Y5870000D03*
D29*
X56390000Y8410000D03*
D33*
X57190000Y8410000D03*
D29*
X56390000Y10950000D03*
D32*
X57190000Y10950000D03*
D29*
X56390000Y13490000D03*
D33*
X57190000Y13490000D03*
D29*
X56390000Y16030000D03*
D33*
X57190000Y16030000D03*
D29*
X56390000Y18570000D03*
D33*
X57190000Y18570000D03*
D29*
X56390000Y21110000D03*
D33*
X57190000Y21110000D03*
D29*
X56390000Y23650000D03*
D32*
X57190000Y23650000D03*
D29*
X56390000Y26190000D03*
D33*
X57190000Y26190000D03*
D29*
X56390000Y28730000D03*
D33*
X57190000Y28730000D03*
D29*
X56390000Y31270000D03*
D33*
X57190000Y31270000D03*
D29*
X56390000Y33810000D03*
D33*
X57190000Y33810000D03*
D29*
X56390000Y36350000D03*
D32*
X57190000Y36350000D03*
D29*
X56390000Y38890000D03*
D33*
X57190000Y38890000D03*
D29*
X56390000Y41430000D03*
D33*
X57190000Y41430000D03*
D29*
X56390000Y43970000D03*
D33*
X57190000Y43970000D03*
D29*
X56390000Y46510000D03*
D33*
X57190000Y46510000D03*
D29*
X56390000Y49050000D03*
D32*
X57190000Y49050000D03*
D29*
X56390000Y51590000D03*
D33*
X57190000Y51590000D03*
D29*
X56390000Y54130000D03*
D33*
X57190000Y54130000D03*
D29*
X44960000Y6100000D03*
D35*
X44960000Y5300000D03*
D29*
X47500000Y6100000D03*
D36*
X47500000Y6100000D03*
D29*
X50040000Y6100000D03*
D35*
X50040000Y5300000D03*
%TD*%
D10*
%TO.C,R1*%
X30912500Y51590000D03*
X29087500Y51590000D03*
%TD*%
%TO.C,R10*%
X30912500Y23650000D03*
X29087500Y23650000D03*
%TD*%
M02*
