%TF.GenerationSoftware,KiCad,Pcbnew,9.0.4*%
%TF.CreationDate,2025-09-20T17:35:25+02:00*%
%TF.ProjectId,demoboard,64656d6f-626f-4617-9264-2e6b69636164,-*%
%TF.SameCoordinates,PX6422c40PY7cee6c0*%
%TF.FileFunction,Paste,Top*%
%TF.FilePolarity,Positive*%
%FSLAX46Y46*%
G04 Gerber Fmt 4.6, Leading zero omitted, Abs format (unit mm)*
G04 Created by KiCad (PCBNEW 9.0.4) date 2025-09-20 17:35:25*
%MOMM*%
%LPD*%
G01*
G04 APERTURE LIST*
G04 Aperture macros list*
%AMRoundRect*
0 Rectangle with rounded corners*
0 $1 Rounding radius*
0 $2 $3 $4 $5 $6 $7 $8 $9 X,Y pos of 4 corners*
0 Add a 4 corners polygon primitive as box body*
4,1,4,$2,$3,$4,$5,$6,$7,$8,$9,$2,$3,0*
0 Add four circle primitives for the rounded corners*
1,1,$1+$1,$2,$3*
1,1,$1+$1,$4,$5*
1,1,$1+$1,$6,$7*
1,1,$1+$1,$8,$9*
0 Add four rect primitives between the rounded corners*
20,1,$1+$1,$2,$3,$4,$5,0*
20,1,$1+$1,$4,$5,$6,$7,0*
20,1,$1+$1,$6,$7,$8,$9,0*
20,1,$1+$1,$8,$9,$2,$3,0*%
G04 Aperture macros list end*
%ADD10RoundRect,0.250000X0.262500X0.450000X-0.262500X0.450000X-0.262500X-0.450000X0.262500X-0.450000X0*%
%ADD11R,1.100000X1.300000*%
%ADD12RoundRect,0.250000X-0.250000X-0.475000X0.250000X-0.475000X0.250000X0.475000X-0.250000X0.475000X0*%
%ADD13RoundRect,0.250000X0.250000X0.475000X-0.250000X0.475000X-0.250000X-0.475000X0.250000X-0.475000X0*%
%ADD14R,1.400000X1.700000*%
%ADD15RoundRect,0.250000X-0.262500X-0.450000X0.262500X-0.450000X0.262500X0.450000X-0.262500X0.450000X0*%
%ADD16RoundRect,0.243750X-0.243750X-0.456250X0.243750X-0.456250X0.243750X0.456250X-0.243750X0.456250X0*%
%ADD17RoundRect,0.250000X-1.050000X-0.550000X1.050000X-0.550000X1.050000X0.550000X-1.050000X0.550000X0*%
G04 APERTURE END LIST*
D10*
%TO.C,R8*%
X30912500Y31270000D03*
X29087500Y31270000D03*
%TD*%
%TO.C,R6*%
X30912500Y36350000D03*
X29087500Y36350000D03*
%TD*%
%TO.C,R7*%
X30912500Y33810000D03*
X29087500Y33810000D03*
%TD*%
D11*
%TO.C,D2*%
X61600000Y54200000D03*
X65000000Y54200000D03*
%TD*%
D10*
%TO.C,R11*%
X30912500Y21110000D03*
X29087500Y21110000D03*
%TD*%
D12*
%TO.C,C3*%
X29050000Y3330000D03*
X30950000Y3330000D03*
%TD*%
D10*
%TO.C,R2*%
X30912500Y49050000D03*
X29087500Y49050000D03*
%TD*%
D13*
%TO.C,C5*%
X22950000Y10950000D03*
X21050000Y10950000D03*
%TD*%
%TO.C,C4*%
X22950000Y8410000D03*
X21050000Y8410000D03*
%TD*%
D14*
%TO.C,SW1*%
X64250000Y28730000D03*
X64250000Y37430000D03*
X68750000Y28730000D03*
X68750000Y37430000D03*
%TD*%
D10*
%TO.C,R13*%
X30912500Y8410000D03*
X29087500Y8410000D03*
%TD*%
D15*
%TO.C,R15*%
X63200000Y48500000D03*
X65025000Y48500000D03*
%TD*%
D10*
%TO.C,R3*%
X30912500Y46510000D03*
X29087500Y46510000D03*
%TD*%
%TO.C,R5*%
X30912500Y38890000D03*
X29087500Y38890000D03*
%TD*%
D16*
%TO.C,D1*%
X63175000Y51000000D03*
X65050000Y51000000D03*
%TD*%
D10*
%TO.C,R4*%
X30912500Y43970000D03*
X29087500Y43970000D03*
%TD*%
D12*
%TO.C,C2*%
X29050000Y10950000D03*
X30950000Y10950000D03*
%TD*%
D10*
%TO.C,R12*%
X30912500Y18570000D03*
X29087500Y18570000D03*
%TD*%
%TO.C,R9*%
X30912500Y26190000D03*
X29087500Y26190000D03*
%TD*%
D17*
%TO.C,C1*%
X63200000Y43970000D03*
X66800000Y43970000D03*
%TD*%
D10*
%TO.C,R14*%
X30912500Y5870000D03*
X29087500Y5870000D03*
%TD*%
%TO.C,R1*%
X30912500Y51590000D03*
X29087500Y51590000D03*
%TD*%
%TO.C,R10*%
X30912500Y23650000D03*
X29087500Y23650000D03*
%TD*%
M02*
