%TF.GenerationSoftware,KiCad,Pcbnew,9.0.4*%
%TF.CreationDate,2025-09-20T17:35:25+02:00*%
%TF.ProjectId,demoboard,64656d6f-626f-4617-9264-2e6b69636164,-*%
%TF.SameCoordinates,PX6422c40PY7cee6c0*%
%TF.FileFunction,Legend,Bot*%
%TF.FilePolarity,Positive*%
%FSLAX46Y46*%
G04 Gerber Fmt 4.6, Leading zero omitted, Abs format (unit mm)*
G04 Created by KiCad (PCBNEW 9.0.4) date 2025-09-20 17:35:25*
%MOMM*%
%LPD*%
G01*
G04 APERTURE LIST*
G04 Aperture macros list*
%AMRoundRect*
0 Rectangle with rounded corners*
0 $1 Rounding radius*
0 $2 $3 $4 $5 $6 $7 $8 $9 X,Y pos of 4 corners*
0 Add a 4 corners polygon primitive as box body*
4,1,4,$2,$3,$4,$5,$6,$7,$8,$9,$2,$3,0*
0 Add four circle primitives for the rounded corners*
1,1,$1+$1,$2,$3*
1,1,$1+$1,$4,$5*
1,1,$1+$1,$6,$7*
1,1,$1+$1,$8,$9*
0 Add four rect primitives between the rounded corners*
20,1,$1+$1,$2,$3,$4,$5,0*
20,1,$1+$1,$4,$5,$6,$7,0*
20,1,$1+$1,$6,$7,$8,$9,0*
20,1,$1+$1,$8,$9,$2,$3,0*%
%AMHorizOval*
0 Thick line with rounded ends*
0 $1 width*
0 $2 $3 position (X,Y) of the first rounded end (center of the circle)*
0 $4 $5 position (X,Y) of the second rounded end (center of the circle)*
0 Add line between two ends*
20,1,$1,$2,$3,$4,$5,0*
0 Add two circle primitives to create the rounded ends*
1,1,$1,$2,$3*
1,1,$1,$4,$5*%
G04 Aperture macros list end*
%ADD10O,2.800000X2.400000*%
%ADD11O,2.800000X2.200000*%
%ADD12O,2.400000X2.800000*%
%ADD13C,2.500000*%
%ADD14R,1.700000X1.700000*%
%ADD15HorizOval,1.700000X0.000000X0.000000X0.000000X0.000000X0*%
%ADD16O,1.700000X1.700000*%
%ADD17RoundRect,0.250000X-0.625000X0.350000X-0.625000X-0.350000X0.625000X-0.350000X0.625000X0.350000X0*%
%ADD18O,1.750000X1.200000*%
%ADD19C,4.000000*%
%ADD20R,1.600000X1.600000*%
%ADD21C,1.600000*%
G04 APERTURE END LIST*
%LPC*%
D10*
%TO.C,J4*%
X5300000Y5925000D03*
D11*
X9600000Y15750000D03*
D12*
X1700000Y10500000D03*
X12800000Y6450000D03*
D11*
X8300000Y13075000D03*
%TD*%
D13*
%TO.C,H2*%
X74000000Y52000000D03*
%TD*%
%TO.C,H4*%
X74000000Y4000000D03*
%TD*%
%TO.C,H1*%
X20000000Y52000000D03*
%TD*%
%TO.C,H3*%
X20000000Y4000000D03*
%TD*%
D14*
%TO.C,J2*%
X64000000Y8500000D03*
D15*
X64000000Y5960000D03*
D16*
X64000000Y3420000D03*
%TD*%
D17*
%TO.C,J3*%
X73500000Y43000000D03*
D18*
X73500000Y41000000D03*
%TD*%
D19*
%TO.C,J1*%
X10960000Y48335000D03*
X10960000Y23335000D03*
D20*
X13500000Y31520000D03*
D21*
X13500000Y33810000D03*
X13500000Y36100000D03*
X13500000Y38390000D03*
X13500000Y40680000D03*
X10960000Y30375000D03*
X10960000Y32665000D03*
X10960000Y34955000D03*
X10960000Y37245000D03*
X10960000Y39535000D03*
X8420000Y31520000D03*
X8420000Y33810000D03*
X8420000Y36100000D03*
X8420000Y38390000D03*
X8420000Y40680000D03*
%TD*%
%TO.C,U1*%
X38610000Y54130000D03*
X38610000Y51590000D03*
X38610000Y49050000D03*
X38610000Y46510000D03*
X38610000Y43970000D03*
X38610000Y41430000D03*
X38610000Y38890000D03*
X38610000Y36350000D03*
X38610000Y33810000D03*
X38610000Y31270000D03*
X38610000Y28730000D03*
X38610000Y26190000D03*
X38610000Y23650000D03*
X38610000Y21110000D03*
X38610000Y18570000D03*
X38610000Y16030000D03*
X38610000Y13490000D03*
X38610000Y10950000D03*
X38610000Y8410000D03*
X38610000Y5870000D03*
X56390000Y5870000D03*
X56390000Y8410000D03*
X56390000Y10950000D03*
X56390000Y13490000D03*
X56390000Y16030000D03*
X56390000Y18570000D03*
X56390000Y21110000D03*
X56390000Y23650000D03*
X56390000Y26190000D03*
X56390000Y28730000D03*
X56390000Y31270000D03*
X56390000Y33810000D03*
X56390000Y36350000D03*
X56390000Y38890000D03*
X56390000Y41430000D03*
X56390000Y43970000D03*
X56390000Y46510000D03*
X56390000Y49050000D03*
X56390000Y51590000D03*
X56390000Y54130000D03*
X44960000Y6100000D03*
X47500000Y6100000D03*
X50040000Y6100000D03*
%TD*%
%LPD*%
M02*
